solid CATIA STL
  facet normal  0.000000e+000  0.000000e+000 -1.000000e+000
    outer loop
      vertex  3.740939e+000 -4.690989e+000  8.000000e+000
      vertex  1.335126e+000 -5.849567e+000  8.000000e+000
      vertex -9.184850e-016 -5.000000e+000  8.000000e+000
    endloop
  endfacet
  facet normal  0.000000e+000  0.000000e+000 -1.000000e+000
    outer loop
      vertex -2.500000e+000  4.330127e+000  8.000000e+000
      vertex -3.740939e+000  4.690989e+000  8.000000e+000
      vertex  3.061617e-016  5.000000e+000  8.000000e+000
    endloop
  endfacet
  facet normal  -0.000000e+000  0.000000e+000 -1.000000e+000
    outer loop
      vertex  3.061617e-016  5.000000e+000  8.000000e+000
      vertex -3.740939e+000  4.690989e+000  8.000000e+000
      vertex -1.335126e+000  5.849567e+000  8.000000e+000
    endloop
  endfacet
  facet normal  0.000000e+000  0.000000e+000 -1.000000e+000
    outer loop
      vertex  3.061617e-016  5.000000e+000  8.000000e+000
      vertex -1.335126e+000  5.849567e+000  8.000000e+000
      vertex  1.335126e+000  5.849567e+000  8.000000e+000
    endloop
  endfacet
  facet normal  0.000000e+000  0.000000e+000 -1.000000e+000
    outer loop
      vertex  1.335126e+000 -5.849567e+000  8.000000e+000
      vertex -1.335126e+000 -5.849567e+000  8.000000e+000
      vertex -9.184850e-016 -5.000000e+000  8.000000e+000
    endloop
  endfacet
  facet normal  -0.000000e+000  0.000000e+000 -1.000000e+000
    outer loop
      vertex -9.184850e-016 -5.000000e+000  8.000000e+000
      vertex -1.335126e+000 -5.849567e+000  8.000000e+000
      vertex -3.740939e+000 -4.690989e+000  8.000000e+000
    endloop
  endfacet
  facet normal  0.000000e+000  0.000000e+000 -1.000000e+000
    outer loop
      vertex -9.184850e-016 -5.000000e+000  8.000000e+000
      vertex -3.740939e+000 -4.690989e+000  8.000000e+000
      vertex -2.500000e+000 -4.330127e+000  8.000000e+000
    endloop
  endfacet
  facet normal  -0.000000e+000  0.000000e+000 -1.000000e+000
    outer loop
      vertex -2.500000e+000 -4.330127e+000  8.000000e+000
      vertex -3.740939e+000 -4.690989e+000  8.000000e+000
      vertex -5.405813e+000 -2.603302e+000  8.000000e+000
    endloop
  endfacet
  facet normal  0.000000e+000  0.000000e+000 -1.000000e+000
    outer loop
      vertex -2.500000e+000 -4.330127e+000  8.000000e+000
      vertex -5.405813e+000 -2.603302e+000  8.000000e+000
      vertex -4.330127e+000 -2.500000e+000  8.000000e+000
    endloop
  endfacet
  facet normal  -0.000000e+000  0.000000e+000 -1.000000e+000
    outer loop
      vertex -4.330127e+000 -2.500000e+000  8.000000e+000
      vertex -5.405813e+000 -2.603302e+000  8.000000e+000
      vertex -6.000000e+000  7.347881e-016  8.000000e+000
    endloop
  endfacet
  facet normal  0.000000e+000  0.000000e+000 -1.000000e+000
    outer loop
      vertex -4.330127e+000 -2.500000e+000  8.000000e+000
      vertex -6.000000e+000  7.347881e-016  8.000000e+000
      vertex -5.000000e+000  6.123234e-016  8.000000e+000
    endloop
  endfacet
  facet normal  0.000000e+000  0.000000e+000 -1.000000e+000
    outer loop
      vertex -5.000000e+000  6.123234e-016  8.000000e+000
      vertex -6.000000e+000  7.347881e-016  8.000000e+000
      vertex -5.405813e+000  2.603302e+000  8.000000e+000
    endloop
  endfacet
  facet normal  0.000000e+000  0.000000e+000 -1.000000e+000
    outer loop
      vertex -5.000000e+000  6.123234e-016  8.000000e+000
      vertex -5.405813e+000  2.603302e+000  8.000000e+000
      vertex -4.330127e+000  2.500000e+000  8.000000e+000
    endloop
  endfacet
  facet normal  0.000000e+000  0.000000e+000 -1.000000e+000
    outer loop
      vertex -4.330127e+000  2.500000e+000  8.000000e+000
      vertex -5.405813e+000  2.603302e+000  8.000000e+000
      vertex -3.740939e+000  4.690989e+000  8.000000e+000
    endloop
  endfacet
  facet normal  0.000000e+000  -0.000000e+000 -1.000000e+000
    outer loop
      vertex -4.330127e+000  2.500000e+000  8.000000e+000
      vertex -3.740939e+000  4.690989e+000  8.000000e+000
      vertex -2.500000e+000  4.330127e+000  8.000000e+000
    endloop
  endfacet
  facet normal  0.000000e+000  -0.000000e+000 -1.000000e+000
    outer loop
      vertex -9.184850e-016 -5.000000e+000  8.000000e+000
      vertex  2.500000e+000 -4.330127e+000  8.000000e+000
      vertex  3.740939e+000 -4.690989e+000  8.000000e+000
    endloop
  endfacet
  facet normal  0.000000e+000  0.000000e+000 -1.000000e+000
    outer loop
      vertex  3.740939e+000 -4.690989e+000  8.000000e+000
      vertex  2.500000e+000 -4.330127e+000  8.000000e+000
      vertex  4.330127e+000 -2.500000e+000  8.000000e+000
    endloop
  endfacet
  facet normal  0.000000e+000  -0.000000e+000 -1.000000e+000
    outer loop
      vertex  3.740939e+000 -4.690989e+000  8.000000e+000
      vertex  4.330127e+000 -2.500000e+000  8.000000e+000
      vertex  5.405813e+000 -2.603302e+000  8.000000e+000
    endloop
  endfacet
  facet normal  0.000000e+000  0.000000e+000 -1.000000e+000
    outer loop
      vertex  5.405813e+000 -2.603302e+000  8.000000e+000
      vertex  4.330127e+000 -2.500000e+000  8.000000e+000
      vertex  5.000000e+000  0.000000e+000  8.000000e+000
    endloop
  endfacet
  facet normal  0.000000e+000  0.000000e+000 -1.000000e+000
    outer loop
      vertex  5.405813e+000 -2.603302e+000  8.000000e+000
      vertex  5.000000e+000  0.000000e+000  8.000000e+000
      vertex  6.000000e+000  0.000000e+000  8.000000e+000
    endloop
  endfacet
  facet normal  0.000000e+000  0.000000e+000 -1.000000e+000
    outer loop
      vertex  6.000000e+000  0.000000e+000  8.000000e+000
      vertex  5.000000e+000  0.000000e+000  8.000000e+000
      vertex  4.330127e+000  2.500000e+000  8.000000e+000
    endloop
  endfacet
  facet normal  0.000000e+000  0.000000e+000 -1.000000e+000
    outer loop
      vertex  6.000000e+000  0.000000e+000  8.000000e+000
      vertex  4.330127e+000  2.500000e+000  8.000000e+000
      vertex  5.405813e+000  2.603302e+000  8.000000e+000
    endloop
  endfacet
  facet normal  -0.000000e+000  0.000000e+000 -1.000000e+000
    outer loop
      vertex  5.405813e+000  2.603302e+000  8.000000e+000
      vertex  4.330127e+000  2.500000e+000  8.000000e+000
      vertex  2.500000e+000  4.330127e+000  8.000000e+000
    endloop
  endfacet
  facet normal  0.000000e+000  0.000000e+000 -1.000000e+000
    outer loop
      vertex  5.405813e+000  2.603302e+000  8.000000e+000
      vertex  2.500000e+000  4.330127e+000  8.000000e+000
      vertex  3.740939e+000  4.690989e+000  8.000000e+000
    endloop
  endfacet
  facet normal  -0.000000e+000  0.000000e+000 -1.000000e+000
    outer loop
      vertex  3.740939e+000  4.690989e+000  8.000000e+000
      vertex  2.500000e+000  4.330127e+000  8.000000e+000
      vertex  3.061617e-016  5.000000e+000  8.000000e+000
    endloop
  endfacet
  facet normal  0.000000e+000  0.000000e+000 -1.000000e+000
    outer loop
      vertex  3.740939e+000  4.690989e+000  8.000000e+000
      vertex  3.061617e-016  5.000000e+000  8.000000e+000
      vertex  1.335126e+000  5.849567e+000  8.000000e+000
    endloop
  endfacet
  facet normal  9.659259e-001 -2.588190e-001  0.000000e+000
    outer loop
      vertex  5.000000e+000  0.000000e+000  0.000000e+000
      vertex  5.000000e+000  0.000000e+000  8.000000e+000
      vertex  4.330127e+000 -2.500000e+000  0.000000e+000
    endloop
  endfacet
  facet normal  9.659259e-001 -2.588190e-001  0.000000e+000
    outer loop
      vertex  4.330127e+000 -2.500000e+000  0.000000e+000
      vertex  5.000000e+000  0.000000e+000  8.000000e+000
      vertex  4.330127e+000 -2.500000e+000  8.000000e+000
    endloop
  endfacet
  facet normal  7.071068e-001 -7.071068e-001  0.000000e+000
    outer loop
      vertex  4.330127e+000 -2.500000e+000  0.000000e+000
      vertex  4.330127e+000 -2.500000e+000  8.000000e+000
      vertex  2.500000e+000 -4.330127e+000  0.000000e+000
    endloop
  endfacet
  facet normal  7.071068e-001 -7.071068e-001  0.000000e+000
    outer loop
      vertex  2.500000e+000 -4.330127e+000  0.000000e+000
      vertex  4.330127e+000 -2.500000e+000  8.000000e+000
      vertex  2.500000e+000 -4.330127e+000  8.000000e+000
    endloop
  endfacet
  facet normal  2.588190e-001 -9.659259e-001  0.000000e+000
    outer loop
      vertex  2.500000e+000 -4.330127e+000  0.000000e+000
      vertex  2.500000e+000 -4.330127e+000  8.000000e+000
      vertex -9.184850e-016 -5.000000e+000  0.000000e+000
    endloop
  endfacet
  facet normal  2.588190e-001 -9.659259e-001  0.000000e+000
    outer loop
      vertex -9.184850e-016 -5.000000e+000  0.000000e+000
      vertex  2.500000e+000 -4.330127e+000  8.000000e+000
      vertex -9.184850e-016 -5.000000e+000  8.000000e+000
    endloop
  endfacet
  facet normal -2.588190e-001 -9.659259e-001  -0.000000e+000
    outer loop
      vertex -9.184850e-016 -5.000000e+000  0.000000e+000
      vertex -9.184850e-016 -5.000000e+000  8.000000e+000
      vertex -2.500000e+000 -4.330127e+000  0.000000e+000
    endloop
  endfacet
  facet normal -2.588190e-001 -9.659259e-001  0.000000e+000
    outer loop
      vertex -2.500000e+000 -4.330127e+000  0.000000e+000
      vertex -9.184850e-016 -5.000000e+000  8.000000e+000
      vertex -2.500000e+000 -4.330127e+000  8.000000e+000
    endloop
  endfacet
  facet normal -7.071068e-001 -7.071068e-001  -0.000000e+000
    outer loop
      vertex -2.500000e+000 -4.330127e+000  0.000000e+000
      vertex -2.500000e+000 -4.330127e+000  8.000000e+000
      vertex -4.330127e+000 -2.500000e+000  0.000000e+000
    endloop
  endfacet
  facet normal -7.071068e-001 -7.071068e-001  0.000000e+000
    outer loop
      vertex -4.330127e+000 -2.500000e+000  0.000000e+000
      vertex -2.500000e+000 -4.330127e+000  8.000000e+000
      vertex -4.330127e+000 -2.500000e+000  8.000000e+000
    endloop
  endfacet
  facet normal -9.659259e-001 -2.588190e-001  -0.000000e+000
    outer loop
      vertex -4.330127e+000 -2.500000e+000  0.000000e+000
      vertex -4.330127e+000 -2.500000e+000  8.000000e+000
      vertex -5.000000e+000  6.123234e-016  0.000000e+000
    endloop
  endfacet
  facet normal -9.659259e-001 -2.588190e-001  0.000000e+000
    outer loop
      vertex -5.000000e+000  6.123234e-016  0.000000e+000
      vertex -4.330127e+000 -2.500000e+000  8.000000e+000
      vertex -5.000000e+000  6.123234e-016  8.000000e+000
    endloop
  endfacet
  facet normal -9.659259e-001  2.588190e-001  0.000000e+000
    outer loop
      vertex -5.000000e+000  6.123234e-016  0.000000e+000
      vertex -5.000000e+000  6.123234e-016  8.000000e+000
      vertex -4.330127e+000  2.500000e+000  0.000000e+000
    endloop
  endfacet
  facet normal -9.659259e-001  2.588190e-001  0.000000e+000
    outer loop
      vertex -4.330127e+000  2.500000e+000  0.000000e+000
      vertex -5.000000e+000  6.123234e-016  8.000000e+000
      vertex -4.330127e+000  2.500000e+000  8.000000e+000
    endloop
  endfacet
  facet normal -7.071068e-001  7.071068e-001  0.000000e+000
    outer loop
      vertex -4.330127e+000  2.500000e+000  0.000000e+000
      vertex -4.330127e+000  2.500000e+000  8.000000e+000
      vertex -2.500000e+000  4.330127e+000  0.000000e+000
    endloop
  endfacet
  facet normal -7.071068e-001  7.071068e-001  0.000000e+000
    outer loop
      vertex -2.500000e+000  4.330127e+000  0.000000e+000
      vertex -4.330127e+000  2.500000e+000  8.000000e+000
      vertex -2.500000e+000  4.330127e+000  8.000000e+000
    endloop
  endfacet
  facet normal -2.588190e-001  9.659259e-001  0.000000e+000
    outer loop
      vertex -2.500000e+000  4.330127e+000  0.000000e+000
      vertex -2.500000e+000  4.330127e+000  8.000000e+000
      vertex  3.061617e-016  5.000000e+000  0.000000e+000
    endloop
  endfacet
  facet normal -2.588190e-001  9.659259e-001  0.000000e+000
    outer loop
      vertex  3.061617e-016  5.000000e+000  0.000000e+000
      vertex -2.500000e+000  4.330127e+000  8.000000e+000
      vertex  3.061617e-016  5.000000e+000  8.000000e+000
    endloop
  endfacet
  facet normal  2.588190e-001  9.659259e-001  0.000000e+000
    outer loop
      vertex  3.061617e-016  5.000000e+000  0.000000e+000
      vertex  3.061617e-016  5.000000e+000  8.000000e+000
      vertex  2.500000e+000  4.330127e+000  0.000000e+000
    endloop
  endfacet
  facet normal  2.588190e-001  9.659259e-001  -0.000000e+000
    outer loop
      vertex  2.500000e+000  4.330127e+000  0.000000e+000
      vertex  3.061617e-016  5.000000e+000  8.000000e+000
      vertex  2.500000e+000  4.330127e+000  8.000000e+000
    endloop
  endfacet
  facet normal  7.071068e-001  7.071068e-001  0.000000e+000
    outer loop
      vertex  2.500000e+000  4.330127e+000  0.000000e+000
      vertex  2.500000e+000  4.330127e+000  8.000000e+000
      vertex  4.330127e+000  2.500000e+000  0.000000e+000
    endloop
  endfacet
  facet normal  7.071068e-001  7.071068e-001  -0.000000e+000
    outer loop
      vertex  4.330127e+000  2.500000e+000  0.000000e+000
      vertex  2.500000e+000  4.330127e+000  8.000000e+000
      vertex  4.330127e+000  2.500000e+000  8.000000e+000
    endloop
  endfacet
  facet normal  9.659259e-001  2.588190e-001  0.000000e+000
    outer loop
      vertex  4.330127e+000  2.500000e+000  0.000000e+000
      vertex  4.330127e+000  2.500000e+000  8.000000e+000
      vertex  5.000000e+000  0.000000e+000  0.000000e+000
    endloop
  endfacet
  facet normal  9.659259e-001  2.588190e-001  -0.000000e+000
    outer loop
      vertex  5.000000e+000  0.000000e+000  0.000000e+000
      vertex  4.330127e+000  2.500000e+000  8.000000e+000
      vertex  5.000000e+000  0.000000e+000  8.000000e+000
    endloop
  endfacet
  facet normal  -0.000000e+000  0.000000e+000  1.000000e+000
    outer loop
      vertex  1.335126e+000  5.849567e+000  1.200000e+001
      vertex -1.335126e+000  5.849567e+000  1.200000e+001
      vertex  3.740939e+000  4.690989e+000  1.200000e+001
    endloop
  endfacet
  facet normal  0.000000e+000  0.000000e+000  1.000000e+000
    outer loop
      vertex  3.740939e+000  4.690989e+000  1.200000e+001
      vertex -1.335126e+000  5.849567e+000  1.200000e+001
      vertex -3.740939e+000  4.690989e+000  1.200000e+001
    endloop
  endfacet
  facet normal  -0.000000e+000  0.000000e+000  1.000000e+000
    outer loop
      vertex  3.740939e+000  4.690989e+000  1.200000e+001
      vertex -3.740939e+000  4.690989e+000  1.200000e+001
      vertex  5.405813e+000  2.603302e+000  1.200000e+001
    endloop
  endfacet
  facet normal  0.000000e+000  0.000000e+000  1.000000e+000
    outer loop
      vertex  5.405813e+000  2.603302e+000  1.200000e+001
      vertex -3.740939e+000  4.690989e+000  1.200000e+001
      vertex -5.405813e+000  2.603302e+000  1.200000e+001
    endloop
  endfacet
  facet normal  -0.000000e+000  0.000000e+000  1.000000e+000
    outer loop
      vertex  5.405813e+000  2.603302e+000  1.200000e+001
      vertex -5.405813e+000  2.603302e+000  1.200000e+001
      vertex  6.000000e+000  0.000000e+000  1.200000e+001
    endloop
  endfacet
  facet normal  0.000000e+000  0.000000e+000  1.000000e+000
    outer loop
      vertex  6.000000e+000  0.000000e+000  1.200000e+001
      vertex -5.405813e+000  2.603302e+000  1.200000e+001
      vertex -6.000000e+000  7.347881e-016  1.200000e+001
    endloop
  endfacet
  facet normal  0.000000e+000  0.000000e+000  1.000000e+000
    outer loop
      vertex  6.000000e+000  0.000000e+000  1.200000e+001
      vertex -6.000000e+000  7.347881e-016  1.200000e+001
      vertex  5.405813e+000 -2.603302e+000  1.200000e+001
    endloop
  endfacet
  facet normal  0.000000e+000  0.000000e+000  1.000000e+000
    outer loop
      vertex  5.405813e+000 -2.603302e+000  1.200000e+001
      vertex -6.000000e+000  7.347881e-016  1.200000e+001
      vertex -5.405813e+000 -2.603302e+000  1.200000e+001
    endloop
  endfacet
  facet normal  -0.000000e+000  0.000000e+000  1.000000e+000
    outer loop
      vertex  5.405813e+000 -2.603302e+000  1.200000e+001
      vertex -5.405813e+000 -2.603302e+000  1.200000e+001
      vertex  3.740939e+000 -4.690989e+000  1.200000e+001
    endloop
  endfacet
  facet normal  0.000000e+000  0.000000e+000  1.000000e+000
    outer loop
      vertex  3.740939e+000 -4.690989e+000  1.200000e+001
      vertex -5.405813e+000 -2.603302e+000  1.200000e+001
      vertex -3.740939e+000 -4.690989e+000  1.200000e+001
    endloop
  endfacet
  facet normal  -0.000000e+000  0.000000e+000  1.000000e+000
    outer loop
      vertex  3.740939e+000 -4.690989e+000  1.200000e+001
      vertex -3.740939e+000 -4.690989e+000  1.200000e+001
      vertex  1.335126e+000 -5.849567e+000  1.200000e+001
    endloop
  endfacet
  facet normal  0.000000e+000  0.000000e+000  1.000000e+000
    outer loop
      vertex  1.335126e+000 -5.849567e+000  1.200000e+001
      vertex -3.740939e+000 -4.690989e+000  1.200000e+001
      vertex -1.335126e+000 -5.849567e+000  1.200000e+001
    endloop
  endfacet
  facet normal  9.749279e-001 -2.225209e-001  0.000000e+000
    outer loop
      vertex  6.000000e+000  0.000000e+000  8.000000e+000
      vertex  6.000000e+000  0.000000e+000  1.200000e+001
      vertex  5.405813e+000 -2.603302e+000  8.000000e+000
    endloop
  endfacet
  facet normal  9.749279e-001 -2.225209e-001  0.000000e+000
    outer loop
      vertex  5.405813e+000 -2.603302e+000  8.000000e+000
      vertex  6.000000e+000  0.000000e+000  1.200000e+001
      vertex  5.405813e+000 -2.603302e+000  1.200000e+001
    endloop
  endfacet
  facet normal  7.818315e-001 -6.234898e-001  0.000000e+000
    outer loop
      vertex  5.405813e+000 -2.603302e+000  8.000000e+000
      vertex  5.405813e+000 -2.603302e+000  1.200000e+001
      vertex  3.740939e+000 -4.690989e+000  8.000000e+000
    endloop
  endfacet
  facet normal  7.818315e-001 -6.234898e-001  0.000000e+000
    outer loop
      vertex  3.740939e+000 -4.690989e+000  8.000000e+000
      vertex  5.405813e+000 -2.603302e+000  1.200000e+001
      vertex  3.740939e+000 -4.690989e+000  1.200000e+001
    endloop
  endfacet
  facet normal  4.338837e-001 -9.009689e-001  0.000000e+000
    outer loop
      vertex  3.740939e+000 -4.690989e+000  8.000000e+000
      vertex  3.740939e+000 -4.690989e+000  1.200000e+001
      vertex  1.335126e+000 -5.849567e+000  8.000000e+000
    endloop
  endfacet
  facet normal  4.338837e-001 -9.009689e-001  0.000000e+000
    outer loop
      vertex  1.335126e+000 -5.849567e+000  8.000000e+000
      vertex  3.740939e+000 -4.690989e+000  1.200000e+001
      vertex  1.335126e+000 -5.849567e+000  1.200000e+001
    endloop
  endfacet
  facet normal  0.000000e+000 -1.000000e+000  -0.000000e+000
    outer loop
      vertex  1.335126e+000 -5.849567e+000  8.000000e+000
      vertex  1.335126e+000 -5.849567e+000  1.200000e+001
      vertex -1.335126e+000 -5.849567e+000  8.000000e+000
    endloop
  endfacet
  facet normal  0.000000e+000 -1.000000e+000  0.000000e+000
    outer loop
      vertex -1.335126e+000 -5.849567e+000  8.000000e+000
      vertex  1.335126e+000 -5.849567e+000  1.200000e+001
      vertex -1.335126e+000 -5.849567e+000  1.200000e+001
    endloop
  endfacet
  facet normal -4.338837e-001 -9.009689e-001  -0.000000e+000
    outer loop
      vertex -1.335126e+000 -5.849567e+000  8.000000e+000
      vertex -1.335126e+000 -5.849567e+000  1.200000e+001
      vertex -3.740939e+000 -4.690989e+000  8.000000e+000
    endloop
  endfacet
  facet normal -4.338837e-001 -9.009689e-001  0.000000e+000
    outer loop
      vertex -3.740939e+000 -4.690989e+000  8.000000e+000
      vertex -1.335126e+000 -5.849567e+000  1.200000e+001
      vertex -3.740939e+000 -4.690989e+000  1.200000e+001
    endloop
  endfacet
  facet normal -7.818315e-001 -6.234898e-001  -0.000000e+000
    outer loop
      vertex -3.740939e+000 -4.690989e+000  8.000000e+000
      vertex -3.740939e+000 -4.690989e+000  1.200000e+001
      vertex -5.405813e+000 -2.603302e+000  8.000000e+000
    endloop
  endfacet
  facet normal -7.818315e-001 -6.234898e-001  0.000000e+000
    outer loop
      vertex -5.405813e+000 -2.603302e+000  8.000000e+000
      vertex -3.740939e+000 -4.690989e+000  1.200000e+001
      vertex -5.405813e+000 -2.603302e+000  1.200000e+001
    endloop
  endfacet
  facet normal -9.749279e-001 -2.225209e-001  -0.000000e+000
    outer loop
      vertex -5.405813e+000 -2.603302e+000  8.000000e+000
      vertex -5.405813e+000 -2.603302e+000  1.200000e+001
      vertex -6.000000e+000  7.347881e-016  8.000000e+000
    endloop
  endfacet
  facet normal -9.749279e-001 -2.225209e-001  0.000000e+000
    outer loop
      vertex -6.000000e+000  7.347881e-016  8.000000e+000
      vertex -5.405813e+000 -2.603302e+000  1.200000e+001
      vertex -6.000000e+000  7.347881e-016  1.200000e+001
    endloop
  endfacet
  facet normal -9.749279e-001  2.225209e-001  0.000000e+000
    outer loop
      vertex -6.000000e+000  7.347881e-016  8.000000e+000
      vertex -6.000000e+000  7.347881e-016  1.200000e+001
      vertex -5.405813e+000  2.603302e+000  8.000000e+000
    endloop
  endfacet
  facet normal -9.749279e-001  2.225209e-001  0.000000e+000
    outer loop
      vertex -5.405813e+000  2.603302e+000  8.000000e+000
      vertex -6.000000e+000  7.347881e-016  1.200000e+001
      vertex -5.405813e+000  2.603302e+000  1.200000e+001
    endloop
  endfacet
  facet normal -7.818315e-001  6.234898e-001  0.000000e+000
    outer loop
      vertex -5.405813e+000  2.603302e+000  8.000000e+000
      vertex -5.405813e+000  2.603302e+000  1.200000e+001
      vertex -3.740939e+000  4.690989e+000  8.000000e+000
    endloop
  endfacet
  facet normal -7.818315e-001  6.234898e-001  0.000000e+000
    outer loop
      vertex -3.740939e+000  4.690989e+000  8.000000e+000
      vertex -5.405813e+000  2.603302e+000  1.200000e+001
      vertex -3.740939e+000  4.690989e+000  1.200000e+001
    endloop
  endfacet
  facet normal -4.338837e-001  9.009689e-001  0.000000e+000
    outer loop
      vertex -3.740939e+000  4.690989e+000  8.000000e+000
      vertex -3.740939e+000  4.690989e+000  1.200000e+001
      vertex -1.335126e+000  5.849567e+000  8.000000e+000
    endloop
  endfacet
  facet normal -4.338837e-001  9.009689e-001  0.000000e+000
    outer loop
      vertex -1.335126e+000  5.849567e+000  8.000000e+000
      vertex -3.740939e+000  4.690989e+000  1.200000e+001
      vertex -1.335126e+000  5.849567e+000  1.200000e+001
    endloop
  endfacet
  facet normal  0.000000e+000  1.000000e+000  0.000000e+000
    outer loop
      vertex -1.335126e+000  5.849567e+000  8.000000e+000
      vertex -1.335126e+000  5.849567e+000  1.200000e+001
      vertex  1.335126e+000  5.849567e+000  8.000000e+000
    endloop
  endfacet
  facet normal  0.000000e+000  1.000000e+000  -0.000000e+000
    outer loop
      vertex  1.335126e+000  5.849567e+000  8.000000e+000
      vertex -1.335126e+000  5.849567e+000  1.200000e+001
      vertex  1.335126e+000  5.849567e+000  1.200000e+001
    endloop
  endfacet
  facet normal  4.338837e-001  9.009689e-001  0.000000e+000
    outer loop
      vertex  1.335126e+000  5.849567e+000  8.000000e+000
      vertex  1.335126e+000  5.849567e+000  1.200000e+001
      vertex  3.740939e+000  4.690989e+000  8.000000e+000
    endloop
  endfacet
  facet normal  4.338837e-001  9.009689e-001  -0.000000e+000
    outer loop
      vertex  3.740939e+000  4.690989e+000  8.000000e+000
      vertex  1.335126e+000  5.849567e+000  1.200000e+001
      vertex  3.740939e+000  4.690989e+000  1.200000e+001
    endloop
  endfacet
  facet normal  7.818315e-001  6.234898e-001  0.000000e+000
    outer loop
      vertex  3.740939e+000  4.690989e+000  8.000000e+000
      vertex  3.740939e+000  4.690989e+000  1.200000e+001
      vertex  5.405813e+000  2.603302e+000  8.000000e+000
    endloop
  endfacet
  facet normal  7.818315e-001  6.234898e-001  -0.000000e+000
    outer loop
      vertex  5.405813e+000  2.603302e+000  8.000000e+000
      vertex  3.740939e+000  4.690989e+000  1.200000e+001
      vertex  5.405813e+000  2.603302e+000  1.200000e+001
    endloop
  endfacet
  facet normal  9.749279e-001  2.225209e-001  0.000000e+000
    outer loop
      vertex  5.405813e+000  2.603302e+000  8.000000e+000
      vertex  5.405813e+000  2.603302e+000  1.200000e+001
      vertex  6.000000e+000  0.000000e+000  8.000000e+000
    endloop
  endfacet
  facet normal  9.749279e-001  2.225209e-001  -0.000000e+000
    outer loop
      vertex  6.000000e+000  0.000000e+000  8.000000e+000
      vertex  5.405813e+000  2.603302e+000  1.200000e+001
      vertex  6.000000e+000  0.000000e+000  1.200000e+001
    endloop
  endfacet
  facet normal  0.000000e+000  0.000000e+000 -1.000000e+000
    outer loop
      vertex  3.061617e-016  5.000000e+000  0.000000e+000
      vertex  2.500000e+000  4.330127e+000  0.000000e+000
      vertex -2.500000e+000  4.330127e+000  0.000000e+000
    endloop
  endfacet
  facet normal  0.000000e+000  0.000000e+000 -1.000000e+000
    outer loop
      vertex -9.184850e-016 -5.000000e+000  0.000000e+000
      vertex -2.500000e+000 -4.330127e+000  0.000000e+000
      vertex  2.500000e+000 -4.330127e+000  0.000000e+000
    endloop
  endfacet
  facet normal  0.000000e+000  0.000000e+000 -1.000000e+000
    outer loop
      vertex  2.500000e+000 -4.330127e+000  0.000000e+000
      vertex -2.500000e+000 -4.330127e+000  0.000000e+000
      vertex -4.330127e+000 -2.500000e+000  0.000000e+000
    endloop
  endfacet
  facet normal  0.000000e+000  0.000000e+000 -1.000000e+000
    outer loop
      vertex  2.500000e+000 -4.330127e+000  0.000000e+000
      vertex -4.330127e+000 -2.500000e+000  0.000000e+000
      vertex  4.330127e+000 -2.500000e+000  0.000000e+000
    endloop
  endfacet
  facet normal  0.000000e+000  0.000000e+000 -1.000000e+000
    outer loop
      vertex  4.330127e+000 -2.500000e+000  0.000000e+000
      vertex -4.330127e+000 -2.500000e+000  0.000000e+000
      vertex -5.000000e+000  6.123234e-016  0.000000e+000
    endloop
  endfacet
  facet normal  0.000000e+000  0.000000e+000 -1.000000e+000
    outer loop
      vertex  4.330127e+000 -2.500000e+000  0.000000e+000
      vertex -5.000000e+000  6.123234e-016  0.000000e+000
      vertex  5.000000e+000  0.000000e+000  0.000000e+000
    endloop
  endfacet
  facet normal  0.000000e+000  0.000000e+000 -1.000000e+000
    outer loop
      vertex  5.000000e+000  0.000000e+000  0.000000e+000
      vertex -5.000000e+000  6.123234e-016  0.000000e+000
      vertex -4.330127e+000  2.500000e+000  0.000000e+000
    endloop
  endfacet
  facet normal  0.000000e+000  0.000000e+000 -1.000000e+000
    outer loop
      vertex  5.000000e+000  0.000000e+000  0.000000e+000
      vertex -4.330127e+000  2.500000e+000  0.000000e+000
      vertex  4.330127e+000  2.500000e+000  0.000000e+000
    endloop
  endfacet
  facet normal  0.000000e+000  0.000000e+000 -1.000000e+000
    outer loop
      vertex  4.330127e+000  2.500000e+000  0.000000e+000
      vertex -4.330127e+000  2.500000e+000  0.000000e+000
      vertex -2.500000e+000  4.330127e+000  0.000000e+000
    endloop
  endfacet
  facet normal  0.000000e+000  0.000000e+000 -1.000000e+000
    outer loop
      vertex  4.330127e+000  2.500000e+000  0.000000e+000
      vertex -2.500000e+000  4.330127e+000  0.000000e+000
      vertex  2.500000e+000  4.330127e+000  0.000000e+000
    endloop
  endfacet
endsolid CATIA STL
