solid CATIA STL
  facet normal  5.000002e-001  1.138130e-006  8.660253e-001
    outer loop
      vertex  1.005502e+001  3.432140e+001 -9.375143e+000
      vertex  9.906359e+000  3.400000e+001 -9.289313e+000
      vertex  1.100000e+001  3.400000e+001 -9.920728e+000
    endloop
  endfacet
  facet normal  5.000000e-001 -2.715021e-007  8.660254e-001
    outer loop
      vertex  1.597514e+001  3.736377e+001 -1.279313e+001
      vertex  1.410296e+001  3.838602e+001 -1.171222e+001
      vertex  1.465294e+001  3.707020e+001 -1.202975e+001
    endloop
  endfacet
  facet normal  5.000010e-001  1.978946e-006  8.660249e-001
    outer loop
      vertex  1.465294e+001  2.292980e+001 -1.202975e+001
      vertex  1.345015e+001  2.362853e+001 -1.133532e+001
      vertex  1.681953e+001  2.123745e+001 -1.328063e+001
    endloop
  endfacet
  facet normal  5.000003e-001  4.143757e-007  8.660252e-001
    outer loop
      vertex  1.100000e+001  2.600000e+001 -9.920728e+000
      vertex  1.245791e+001  2.467945e+001 -1.076245e+001
      vertex  1.175141e+001  2.600294e+001 -1.035456e+001
    endloop
  endfacet
  facet normal  5.000004e-001 -3.555915e-007  8.660253e-001
    outer loop
      vertex  1.100000e+001  2.600000e+001 -9.920728e+000
      vertex  1.175141e+001  2.600294e+001 -1.035456e+001
      vertex  1.138417e+001  2.749872e+001 -1.014253e+001
    endloop
  endfacet
  facet normal  4.999993e-001  0.000000e+000  8.660259e-001
    outer loop
      vertex  1.100000e+001  2.600000e+001 -9.920728e+000
      vertex  1.138417e+001  2.749872e+001 -1.014253e+001
      vertex  1.100000e+001  3.400000e+001 -9.920728e+000
    endloop
  endfacet
  facet normal  4.999999e-001 -3.557611e-008  8.660254e-001
    outer loop
      vertex  1.172448e+001  3.682445e+001 -1.033901e+001
      vertex  1.005502e+001  3.432140e+001 -9.375143e+000
      vertex  1.100000e+001  3.400000e+001 -9.920728e+000
    endloop
  endfacet
  facet normal  5.000004e-001 -1.822318e-007  8.660253e-001
    outer loop
      vertex  1.172448e+001  3.682445e+001 -1.033901e+001
      vertex  1.100000e+001  3.400000e+001 -9.920728e+000
      vertex  1.175141e+001  3.399706e+001 -1.035456e+001
    endloop
  endfacet
  facet normal  5.000000e-001 -1.836680e-007  8.660254e-001
    outer loop
      vertex  1.172448e+001  3.682445e+001 -1.033901e+001
      vertex  1.175141e+001  3.399706e+001 -1.035456e+001
      vertex  1.245791e+001  3.532055e+001 -1.076245e+001
    endloop
  endfacet
  facet normal  5.000001e-001 -9.123997e-008  8.660253e-001
    outer loop
      vertex  1.172448e+001  3.682445e+001 -1.033901e+001
      vertex  1.245791e+001  3.532055e+001 -1.076245e+001
      vertex  1.345015e+001  3.637147e+001 -1.133532e+001
    endloop
  endfacet
  facet normal  5.000001e-001 -1.179454e-007  8.660253e-001
    outer loop
      vertex  1.172448e+001  3.682445e+001 -1.033901e+001
      vertex  1.345015e+001  3.637147e+001 -1.133532e+001
      vertex  1.465294e+001  3.707020e+001 -1.202975e+001
    endloop
  endfacet
  facet normal  5.000001e-001 -1.941310e-007  8.660253e-001
    outer loop
      vertex  1.172448e+001  3.682445e+001 -1.033901e+001
      vertex  1.465294e+001  3.707020e+001 -1.202975e+001
      vertex  1.410296e+001  3.838602e+001 -1.171222e+001
    endloop
  endfacet
  facet normal  5.000000e-001 -2.964974e-007  8.660253e-001
    outer loop
      vertex  1.681953e+001  3.876255e+001 -1.328063e+001
      vertex  1.410296e+001  3.838602e+001 -1.171222e+001
      vertex  1.597514e+001  3.736377e+001 -1.279313e+001
    endloop
  endfacet
  facet normal  4.999996e-001  2.594780e-008  8.660256e-001
    outer loop
      vertex  1.681953e+001  3.876255e+001 -1.328063e+001
      vertex  1.597514e+001  3.736377e+001 -1.279313e+001
      vertex  1.731658e+001  3.722997e+001 -1.356760e+001
    endloop
  endfacet
  facet normal  5.000004e-001  3.273679e-007  8.660252e-001
    outer loop
      vertex  1.681953e+001  3.876255e+001 -1.328063e+001
      vertex  1.731658e+001  3.722997e+001 -1.356760e+001
      vertex  1.857559e+001  3.667890e+001 -1.429450e+001
    endloop
  endfacet
  facet normal  5.000001e-001  5.215213e-008  8.660254e-001
    outer loop
      vertex  1.681953e+001  3.876255e+001 -1.328063e+001
      vertex  1.857559e+001  3.667890e+001 -1.429450e+001
      vertex  1.945050e+001  3.789533e+001 -1.479962e+001
    endloop
  endfacet
  facet normal  5.000002e-001 -2.953110e-007  8.660252e-001
    outer loop
      vertex  2.097772e+001  3.307672e+001 -1.568137e+001
      vertex  2.289170e+001  3.314351e+001 -1.678640e+001
      vertex  2.047824e+001  3.452051e+001 -1.539299e+001
    endloop
  endfacet
  facet normal  5.000003e-001 -2.106300e-007  8.660252e-001
    outer loop
      vertex  2.047824e+001  3.452051e+001 -1.539299e+001
      vertex  2.289170e+001  3.314351e+001 -1.678640e+001
      vertex  2.158555e+001  3.591960e+001 -1.603230e+001
    endloop
  endfacet
  facet normal  4.999997e-001  4.929182e-007  8.660256e-001
    outer loop
      vertex  2.047824e+001  3.452051e+001 -1.539299e+001
      vertex  2.158555e+001  3.591960e+001 -1.603230e+001
      vertex  1.965679e+001  3.575235e+001 -1.491873e+001
    endloop
  endfacet
  facet normal  4.999997e-001 -5.883012e-008  8.660255e-001
    outer loop
      vertex  1.965679e+001  3.575235e+001 -1.491873e+001
      vertex  2.158555e+001  3.591960e+001 -1.603230e+001
      vertex  1.945050e+001  3.789533e+001 -1.479962e+001
    endloop
  endfacet
  facet normal  5.000002e-001  3.035209e-009  8.660253e-001
    outer loop
      vertex  1.965679e+001  3.575235e+001 -1.491873e+001
      vertex  1.945050e+001  3.789533e+001 -1.479962e+001
      vertex  1.857559e+001  3.667890e+001 -1.429450e+001
    endloop
  endfacet
  facet normal  5.000000e-001  1.185094e-007  8.660254e-001
    outer loop
      vertex  1.345015e+001  2.362853e+001 -1.133532e+001
      vertex  1.410296e+001  2.161398e+001 -1.171222e+001
      vertex  1.681953e+001  2.123745e+001 -1.328063e+001
    endloop
  endfacet
  facet normal  5.000001e-001  1.642108e-007  8.660254e-001
    outer loop
      vertex  1.410296e+001  2.161398e+001 -1.171222e+001
      vertex  1.345015e+001  2.362853e+001 -1.133532e+001
      vertex  1.172448e+001  2.317555e+001 -1.033901e+001
    endloop
  endfacet
  facet normal  5.000001e-001  9.123981e-008  8.660253e-001
    outer loop
      vertex  1.172448e+001  2.317555e+001 -1.033901e+001
      vertex  1.345015e+001  2.362853e+001 -1.133532e+001
      vertex  1.245791e+001  2.467945e+001 -1.076245e+001
    endloop
  endfacet
  facet normal  5.000001e-001  1.662637e-007  8.660254e-001
    outer loop
      vertex  1.172448e+001  2.317555e+001 -1.033901e+001
      vertex  1.245791e+001  2.467945e+001 -1.076245e+001
      vertex  1.005502e+001  2.567860e+001 -9.375143e+000
    endloop
  endfacet
  facet normal  4.999999e-001 -1.202917e-007  8.660254e-001
    outer loop
      vertex  1.005502e+001  2.567860e+001 -9.375143e+000
      vertex  1.245791e+001  2.467945e+001 -1.076245e+001
      vertex  1.100000e+001  2.600000e+001 -9.920728e+000
    endloop
  endfacet
  facet normal  5.000002e-001 -1.174844e-006  8.660253e-001
    outer loop
      vertex  1.005502e+001  2.567860e+001 -9.375143e+000
      vertex  1.100000e+001  2.600000e+001 -9.920728e+000
      vertex  9.906359e+000  2.600000e+001 -9.289313e+000
    endloop
  endfacet
  facet normal  5.000003e-001  3.670624e-007  8.660253e-001
    outer loop
      vertex  1.175141e+001  3.399706e+001 -1.035456e+001
      vertex  1.100000e+001  3.400000e+001 -9.920728e+000
      vertex  1.138417e+001  3.250128e+001 -1.014253e+001
    endloop
  endfacet
  facet normal  4.999993e-001  0.000000e+000  8.660258e-001
    outer loop
      vertex  1.138417e+001  3.250128e+001 -1.014253e+001
      vertex  1.100000e+001  3.400000e+001 -9.920728e+000
      vertex  1.138417e+001  2.749872e+001 -1.014253e+001
    endloop
  endfacet
  facet normal  5.000030e-001  -0.000000e+000  8.660235e-001
    outer loop
      vertex  1.138417e+001  3.250128e+001 -1.014253e+001
      vertex  1.138417e+001  2.749872e+001 -1.014253e+001
      vertex  1.157082e+001  3.000000e+001 -1.025029e+001
    endloop
  endfacet
  facet normal  5.000000e-001  3.223001e-007  8.660254e-001
    outer loop
      vertex  1.465294e+001  2.292980e+001 -1.202975e+001
      vertex  1.681953e+001  2.123745e+001 -1.328063e+001
      vertex  1.597514e+001  2.263623e+001 -1.279313e+001
    endloop
  endfacet
  facet normal  5.000000e-001  3.275615e-007  8.660254e-001
    outer loop
      vertex  1.597514e+001  2.263623e+001 -1.279313e+001
      vertex  1.681953e+001  2.123745e+001 -1.328063e+001
      vertex  1.945050e+001  2.210467e+001 -1.479962e+001
    endloop
  endfacet
  facet normal  4.999997e-001 -2.103223e-006  8.660255e-001
    outer loop
      vertex  1.597514e+001  2.263623e+001 -1.279313e+001
      vertex  1.945050e+001  2.210467e+001 -1.479962e+001
      vertex  1.731658e+001  2.277003e+001 -1.356760e+001
    endloop
  endfacet
  facet normal  5.000002e-001  5.126984e-008  8.660253e-001
    outer loop
      vertex  1.731658e+001  2.277003e+001 -1.356760e+001
      vertex  1.945050e+001  2.210467e+001 -1.479962e+001
      vertex  1.857559e+001  2.332110e+001 -1.429450e+001
    endloop
  endfacet
  facet normal  4.999999e-001 -2.386622e-007  8.660254e-001
    outer loop
      vertex  1.857559e+001  2.332110e+001 -1.429450e+001
      vertex  1.945050e+001  2.210467e+001 -1.479962e+001
      vertex  2.158555e+001  2.408040e+001 -1.603230e+001
    endloop
  endfacet
  facet normal  4.999998e-001  7.344486e-007  8.660256e-001
    outer loop
      vertex  1.857559e+001  2.332110e+001 -1.429450e+001
      vertex  2.158555e+001  2.408040e+001 -1.603230e+001
      vertex  1.965679e+001  2.424765e+001 -1.491873e+001
    endloop
  endfacet
  facet normal  4.999997e-001 -4.929178e-007  8.660256e-001
    outer loop
      vertex  1.965679e+001  2.424765e+001 -1.491873e+001
      vertex  2.158555e+001  2.408040e+001 -1.603230e+001
      vertex  2.047824e+001  2.547949e+001 -1.539299e+001
    endloop
  endfacet
  facet normal  5.000003e-001  2.106298e-007  8.660252e-001
    outer loop
      vertex  2.047824e+001  2.547949e+001 -1.539299e+001
      vertex  2.158555e+001  2.408040e+001 -1.603230e+001
      vertex  2.289170e+001  2.685649e+001 -1.678640e+001
    endloop
  endfacet
  facet normal  5.000003e-001  2.953111e-007  8.660252e-001
    outer loop
      vertex  2.047824e+001  2.547949e+001 -1.539299e+001
      vertex  2.289170e+001  2.685649e+001 -1.678640e+001
      vertex  2.097772e+001  2.692328e+001 -1.568137e+001
    endloop
  endfacet
  facet normal  5.000003e-001  4.870313e-007  8.660253e-001
    outer loop
      vertex  2.097772e+001  2.692328e+001 -1.568137e+001
      vertex  2.289170e+001  2.685649e+001 -1.678640e+001
      vertex  2.111737e+001  2.846892e+001 -1.576200e+001
    endloop
  endfacet
  facet normal  4.999997e-001 -3.430606e-007  8.660255e-001
    outer loop
      vertex  2.111737e+001  2.846892e+001 -1.576200e+001
      vertex  2.289170e+001  2.685649e+001 -1.678640e+001
      vertex  2.316524e+001  3.000000e+001 -1.694433e+001
    endloop
  endfacet
  facet normal  5.000000e-001 -7.694991e-007  8.660254e-001
    outer loop
      vertex  2.111737e+001  2.846892e+001 -1.576200e+001
      vertex  2.316524e+001  3.000000e+001 -1.694433e+001
      vertex  2.088696e+001  3.000000e+001 -1.562896e+001
    endloop
  endfacet
  facet normal  5.000000e-001  7.694991e-007  8.660254e-001
    outer loop
      vertex  2.088696e+001  3.000000e+001 -1.562896e+001
      vertex  2.316524e+001  3.000000e+001 -1.694433e+001
      vertex  2.111737e+001  3.153108e+001 -1.576200e+001
    endloop
  endfacet
  facet normal  4.999997e-001  3.430604e-007  8.660255e-001
    outer loop
      vertex  2.111737e+001  3.153108e+001 -1.576200e+001
      vertex  2.316524e+001  3.000000e+001 -1.694433e+001
      vertex  2.289170e+001  3.314351e+001 -1.678640e+001
    endloop
  endfacet
  facet normal  5.000003e-001 -4.870312e-007  8.660252e-001
    outer loop
      vertex  2.111737e+001  3.153108e+001 -1.576200e+001
      vertex  2.289170e+001  3.314351e+001 -1.678640e+001
      vertex  2.097772e+001  3.307672e+001 -1.568137e+001
    endloop
  endfacet
  facet normal  8.707401e-001 -8.583300e-002 -4.841947e-001
    outer loop
      vertex  1.157082e+001  3.000000e+001 -1.025029e+001
      vertex  1.138417e+001  2.749872e+001 -1.014253e+001
      vertex  1.094173e+001  2.754138e+001 -1.094575e+001
    endloop
  endfacet
  facet normal  8.441032e-001 -6.544636e-002 -5.321715e-001
    outer loop
      vertex  1.157082e+001  3.000000e+001 -1.025029e+001
      vertex  1.094173e+001  2.754138e+001 -1.094575e+001
      vertex  1.054110e+001  2.801668e+001 -1.163966e+001
    endloop
  endfacet
  facet normal  8.338929e-001 -4.775658e-002 -5.498563e-001
    outer loop
      vertex  1.157082e+001  3.000000e+001 -1.025029e+001
      vertex  1.054110e+001  2.801668e+001 -1.163966e+001
      vertex  1.024875e+001  2.874199e+001 -1.214602e+001
    endloop
  endfacet
  facet normal -8.931355e-001 -4.775754e-002  4.472449e-001
    outer loop
      vertex  2.088696e+001  3.000000e+001 -1.562896e+001
      vertex  1.990623e+001  2.874199e+001 -1.772177e+001
      vertex  2.019858e+001  2.801668e+001 -1.721541e+001
    endloop
  endfacet
  facet normal -8.829262e-001 -6.544578e-002  4.649282e-001
    outer loop
      vertex  2.088696e+001  3.000000e+001 -1.562896e+001
      vertex  2.019858e+001  2.801668e+001 -1.721541e+001
      vertex  2.059921e+001  2.754138e+001 -1.652150e+001
    endloop
  endfacet
  facet normal -7.082213e-001 -1.662005e-001  6.861486e-001
    outer loop
      vertex  2.088696e+001  3.000000e+001 -1.562896e+001
      vertex  2.059921e+001  2.754138e+001 -1.652150e+001
      vertex  2.111737e+001  2.846892e+001 -1.576200e+001
    endloop
  endfacet
  facet normal  7.720807e-001  5.232922e-001 -3.606339e-001
    outer loop
      vertex  1.245791e+001  2.467945e+001 -1.076245e+001
      vertex  1.139492e+001  2.526593e+001 -1.218719e+001
      vertex  1.175141e+001  2.600294e+001 -1.035456e+001
    endloop
  endfacet
  facet normal  8.850133e-001  3.461344e-001 -3.113557e-001
    outer loop
      vertex  1.175141e+001  2.600294e+001 -1.035456e+001
      vertex  1.139492e+001  2.526593e+001 -1.218719e+001
      vertex  1.094173e+001  2.754138e+001 -1.094575e+001
    endloop
  endfacet
  facet normal  8.487766e-001  2.726086e-001 -4.530592e-001
    outer loop
      vertex  1.175141e+001  2.600294e+001 -1.035456e+001
      vertex  1.094173e+001  2.754138e+001 -1.094575e+001
      vertex  1.138417e+001  2.749872e+001 -1.014253e+001
    endloop
  endfacet
  facet normal  4.540831e-001  8.848843e-001 -1.038665e-001
    outer loop
      vertex  1.465294e+001  2.292980e+001 -1.202975e+001
      vertex  1.283203e+001  2.366756e+001 -1.370515e+001
      vertex  1.345015e+001  2.362853e+001 -1.133532e+001
    endloop
  endfacet
  facet normal  6.546068e-001  7.391521e-001 -1.585691e-001
    outer loop
      vertex  1.345015e+001  2.362853e+001 -1.133532e+001
      vertex  1.283203e+001  2.366756e+001 -1.370515e+001
      vertex  1.139492e+001  2.526593e+001 -1.218719e+001
    endloop
  endfacet
  facet normal  6.590231e-001  7.271008e-001 -1.923877e-001
    outer loop
      vertex  1.345015e+001  2.362853e+001 -1.133532e+001
      vertex  1.139492e+001  2.526593e+001 -1.218719e+001
      vertex  1.245791e+001  2.467945e+001 -1.076245e+001
    endloop
  endfacet
  facet normal -2.242052e-001  9.233584e-001  3.116749e-001
    outer loop
      vertex  1.857559e+001  2.332110e+001 -1.429450e+001
      vertex  1.726435e+001  2.366756e+001 -1.626416e+001
      vertex  1.731658e+001  2.277003e+001 -1.356760e+001
    endloop
  endfacet
  facet normal -8.472408e-002  9.449187e-001  3.161495e-001
    outer loop
      vertex  1.731658e+001  2.277003e+001 -1.356760e+001
      vertex  1.726435e+001  2.366756e+001 -1.626416e+001
      vertex  1.494110e+001  2.309321e+001 -1.517014e+001
    endloop
  endfacet
  facet normal  8.836309e-003  9.826840e-001  1.850786e-001
    outer loop
      vertex  1.731658e+001  2.277003e+001 -1.356760e+001
      vertex  1.494110e+001  2.309321e+001 -1.517014e+001
      vertex  1.597514e+001  2.263623e+001 -1.279313e+001
    endloop
  endfacet
  facet normal  2.971276e-001  9.533085e-001  5.401884e-002
    outer loop
      vertex  1.597514e+001  2.263623e+001 -1.279313e+001
      vertex  1.494110e+001  2.309321e+001 -1.517014e+001
      vertex  1.283203e+001  2.366756e+001 -1.370515e+001
    endloop
  endfacet
  facet normal  2.789442e-001  9.532060e-001  1.165688e-001
    outer loop
      vertex  1.597514e+001  2.263623e+001 -1.279313e+001
      vertex  1.283203e+001  2.366756e+001 -1.370515e+001
      vertex  1.465294e+001  2.292980e+001 -1.202975e+001
    endloop
  endfacet
  facet normal -6.437485e-001  6.081223e-001  4.645162e-001
    outer loop
      vertex  2.047824e+001  2.547949e+001 -1.539299e+001
      vertex  1.929749e+001  2.526593e+001 -1.674974e+001
      vertex  1.965679e+001  2.424765e+001 -1.491873e+001
    endloop
  endfacet
  facet normal -4.588403e-001  7.352207e-001  4.989148e-001
    outer loop
      vertex  1.965679e+001  2.424765e+001 -1.491873e+001
      vertex  1.929749e+001  2.526593e+001 -1.674974e+001
      vertex  1.726435e+001  2.366756e+001 -1.626416e+001
    endloop
  endfacet
  facet normal -4.329588e-001  7.934356e-001  4.277927e-001
    outer loop
      vertex  1.965679e+001  2.424765e+001 -1.491873e+001
      vertex  1.726435e+001  2.366756e+001 -1.626416e+001
      vertex  1.857559e+001  2.332110e+001 -1.429450e+001
    endloop
  endfacet
  facet normal -8.760210e-001  1.037214e-001  4.709874e-001
    outer loop
      vertex  2.111737e+001  2.846892e+001 -1.576200e+001
      vertex  2.059921e+001  2.754138e+001 -1.652150e+001
      vertex  2.097772e+001  2.692328e+001 -1.568137e+001
    endloop
  endfacet
  facet normal -7.256041e-001  3.560306e-001  5.888472e-001
    outer loop
      vertex  2.097772e+001  2.692328e+001 -1.568137e+001
      vertex  2.059921e+001  2.754138e+001 -1.652150e+001
      vertex  1.929749e+001  2.526593e+001 -1.674974e+001
    endloop
  endfacet
  facet normal -7.294113e-001  3.675714e-001  5.769318e-001
    outer loop
      vertex  2.097772e+001  2.692328e+001 -1.568137e+001
      vertex  1.929749e+001  2.526593e+001 -1.674974e+001
      vertex  2.047824e+001  2.547949e+001 -1.539299e+001
    endloop
  endfacet
  facet normal  5.775884e-001  6.108562e-001  5.415222e-001
    outer loop
      vertex  1.381564e+001  2.442843e+001 -1.711948e+001
      vertex  1.104719e+001  2.675985e+001 -1.679657e+001
      vertex  1.180016e+001  2.489175e+001 -1.549240e+001
    endloop
  endfacet
  facet normal  8.545783e-001  4.810509e-001  1.956682e-001
    outer loop
      vertex  1.180016e+001  2.489175e+001 -1.549240e+001
      vertex  1.104719e+001  2.675985e+001 -1.679657e+001
      vertex  1.006060e+001  2.757769e+001 -1.449831e+001
    endloop
  endfacet
  facet normal  8.545783e-001  4.810508e-001  1.956683e-001
    outer loop
      vertex  1.180016e+001  2.489175e+001 -1.549240e+001
      vertex  1.006060e+001  2.757769e+001 -1.449831e+001
      vertex  1.062351e+001  2.618112e+001 -1.352332e+001
    endloop
  endfacet
  facet normal  9.492707e-001  2.449625e-001 -1.971764e-001
    outer loop
      vertex  1.062351e+001  2.618112e+001 -1.352332e+001
      vertex  1.006060e+001  2.757769e+001 -1.449831e+001
      vertex  1.024875e+001  2.874199e+001 -1.214602e+001
    endloop
  endfacet
  facet normal  9.492706e-001  2.449625e-001 -1.971765e-001
    outer loop
      vertex  1.062351e+001  2.618112e+001 -1.352332e+001
      vertex  1.024875e+001  2.874199e+001 -1.214602e+001
      vertex  1.054110e+001  2.801668e+001 -1.163966e+001
    endloop
  endfacet
  facet normal  5.775885e-001  6.108562e-001  5.415223e-001
    outer loop
      vertex  1.104719e+001  2.675985e+001 -1.679657e+001
      vertex  1.381564e+001  2.442843e+001 -1.711948e+001
      vertex  1.299439e+001  2.646597e+001 -1.854194e+001
    endloop
  endfacet
  facet normal  1.801779e-001  6.108561e-001  7.709672e-001
    outer loop
      vertex  1.299439e+001  2.646597e+001 -1.854194e+001
      vertex  1.381564e+001  2.442843e+001 -1.711948e+001
      vertex  1.623248e+001  2.489175e+001 -1.805140e+001
    endloop
  endfacet
  facet normal  1.801778e-001  6.108561e-001  7.709674e-001
    outer loop
      vertex  1.299439e+001  2.646597e+001 -1.854194e+001
      vertex  1.623248e+001  2.489175e+001 -1.805140e+001
      vertex  1.547952e+001  2.675985e+001 -1.935557e+001
    endloop
  endfacet
  facet normal -2.578350e-001  4.810509e-001  8.379207e-001
    outer loop
      vertex  1.547952e+001  2.675985e+001 -1.935557e+001
      vertex  1.623248e+001  2.489175e+001 -1.805140e+001
      vertex  1.852608e+001  2.618112e+001 -1.808587e+001
    endloop
  endfacet
  facet normal -2.578349e-001  4.810510e-001  8.379206e-001
    outer loop
      vertex  1.547952e+001  2.675985e+001 -1.935557e+001
      vertex  1.852608e+001  2.618112e+001 -1.808587e+001
      vertex  1.796317e+001  2.757769e+001 -1.906086e+001
    endloop
  endfacet
  facet normal -6.453953e-001  2.449626e-001  7.235042e-001
    outer loop
      vertex  1.796317e+001  2.757769e+001 -1.906086e+001
      vertex  1.852608e+001  2.618112e+001 -1.808587e+001
      vertex  2.019858e+001  2.801668e+001 -1.721541e+001
    endloop
  endfacet
  facet normal -6.453954e-001  2.449612e-001  7.235045e-001
    outer loop
      vertex  1.796317e+001  2.757769e+001 -1.906086e+001
      vertex  2.019858e+001  2.801668e+001 -1.721541e+001
      vertex  1.990623e+001  2.874199e+001 -1.772177e+001
    endloop
  endfacet
  facet normal  4.469914e-001  8.371203e-001  3.153227e-001
    outer loop
      vertex  1.494110e+001  2.309321e+001 -1.517014e+001
      vertex  1.180016e+001  2.489175e+001 -1.549240e+001
      vertex  1.283203e+001  2.366756e+001 -1.370515e+001
    endloop
  endfacet
  facet normal  7.517331e-001  6.592343e-001  1.753528e-002
    outer loop
      vertex  1.283203e+001  2.366756e+001 -1.370515e+001
      vertex  1.180016e+001  2.489175e+001 -1.549240e+001
      vertex  1.062351e+001  2.618112e+001 -1.352332e+001
    endloop
  endfacet
  facet normal  7.517332e-001  6.592343e-001  1.753507e-002
    outer loop
      vertex  1.283203e+001  2.366756e+001 -1.370515e+001
      vertex  1.062351e+001  2.618112e+001 -1.352332e+001
      vertex  1.139492e+001  2.526593e+001 -1.218719e+001
    endloop
  endfacet
  facet normal  8.968996e-001  3.356976e-001 -2.878859e-001
    outer loop
      vertex  1.139492e+001  2.526593e+001 -1.218719e+001
      vertex  1.062351e+001  2.618112e+001 -1.352332e+001
      vertex  1.054110e+001  2.801668e+001 -1.163966e+001
    endloop
  endfacet
  facet normal  8.968991e-001  3.356977e-001 -2.878872e-001
    outer loop
      vertex  1.139492e+001  2.526593e+001 -1.218719e+001
      vertex  1.054110e+001  2.801668e+001 -1.163966e+001
      vertex  1.094173e+001  2.754138e+001 -1.094575e+001
    endloop
  endfacet
  facet normal  4.469916e-001  8.371205e-001  3.153217e-001
    outer loop
      vertex  1.180016e+001  2.489175e+001 -1.549240e+001
      vertex  1.494110e+001  2.309321e+001 -1.517014e+001
      vertex  1.381564e+001  2.442843e+001 -1.711948e+001
    endloop
  endfacet
  facet normal  4.958143e-002  8.371206e-001  5.447668e-001
    outer loop
      vertex  1.381564e+001  2.442843e+001 -1.711948e+001
      vertex  1.494110e+001  2.309321e+001 -1.517014e+001
      vertex  1.726435e+001  2.366756e+001 -1.626416e+001
    endloop
  endfacet
  facet normal  4.958116e-002  8.371201e-001  5.447674e-001
    outer loop
      vertex  1.381564e+001  2.442843e+001 -1.711948e+001
      vertex  1.726435e+001  2.366756e+001 -1.626416e+001
      vertex  1.623248e+001  2.489175e+001 -1.805140e+001
    endloop
  endfacet
  facet normal -3.606806e-001  6.592343e-001  6.597876e-001
    outer loop
      vertex  1.623248e+001  2.489175e+001 -1.805140e+001
      vertex  1.726435e+001  2.366756e+001 -1.626416e+001
      vertex  1.929749e+001  2.526593e+001 -1.674974e+001
    endloop
  endfacet
  facet normal -3.606805e-001  6.592348e-001  6.597870e-001
    outer loop
      vertex  1.623248e+001  2.489175e+001 -1.805140e+001
      vertex  1.929749e+001  2.526593e+001 -1.674974e+001
      vertex  1.852608e+001  2.618112e+001 -1.808587e+001
    endloop
  endfacet
  facet normal -6.977668e-001  3.356975e-001  6.327944e-001
    outer loop
      vertex  1.852608e+001  2.618112e+001 -1.808587e+001
      vertex  1.929749e+001  2.526593e+001 -1.674974e+001
      vertex  2.059921e+001  2.754138e+001 -1.652150e+001
    endloop
  endfacet
  facet normal -6.977669e-001  3.356988e-001  6.327934e-001
    outer loop
      vertex  1.852608e+001  2.618112e+001 -1.808587e+001
      vertex  2.059921e+001  2.754138e+001 -1.652150e+001
      vertex  2.019858e+001  2.801668e+001 -1.721541e+001
    endloop
  endfacet
  facet normal -7.350600e-001  1.677012e-001  6.569347e-001
    outer loop
      vertex  2.088696e+001  3.000000e+001 -1.562896e+001
      vertex  2.111737e+001  3.153108e+001 -1.576200e+001
      vertex  2.052965e+001  3.240216e+001 -1.664198e+001
    endloop
  endfacet
  facet normal -8.857555e-001  6.222076e-002  4.599628e-001
    outer loop
      vertex  2.088696e+001  3.000000e+001 -1.562896e+001
      vertex  2.052965e+001  3.240216e+001 -1.664198e+001
      vertex  2.009095e+001  3.177413e+001 -1.740184e+001
    endloop
  endfacet
  facet normal -8.963917e-001  3.903911e-002  4.415402e-001
    outer loop
      vertex  2.088696e+001  3.000000e+001 -1.562896e+001
      vertex  2.009095e+001  3.177413e+001 -1.740184e+001
      vertex  1.981570e+001  3.084612e+001 -1.787857e+001
    endloop
  endfacet
  facet normal -9.014649e-001  9.254102e-003  4.327534e-001
    outer loop
      vertex  2.088696e+001  3.000000e+001 -1.562896e+001
      vertex  1.981570e+001  3.084612e+001 -1.787857e+001
      vertex  1.975045e+001  2.977503e+001 -1.799159e+001
    endloop
  endfacet
  facet normal -9.001160e-001 -2.209431e-002  4.350896e-001
    outer loop
      vertex  2.088696e+001  3.000000e+001 -1.562896e+001
      vertex  1.975045e+001  2.977503e+001 -1.799159e+001
      vertex  1.990623e+001  2.874199e+001 -1.772177e+001
    endloop
  endfacet
  facet normal  8.268567e-001 -2.209515e-002 -5.619785e-001
    outer loop
      vertex  1.157082e+001  3.000000e+001 -1.025029e+001
      vertex  1.024875e+001  2.874199e+001 -1.214602e+001
      vertex  1.009297e+001  2.977503e+001 -1.241584e+001
    endloop
  endfacet
  facet normal  8.255079e-001  9.254589e-003 -5.643147e-001
    outer loop
      vertex  1.157082e+001  3.000000e+001 -1.025029e+001
      vertex  1.009297e+001  2.977503e+001 -1.241584e+001
      vertex  1.015822e+001  3.084612e+001 -1.230283e+001
    endloop
  endfacet
  facet normal  8.305808e-001  3.903832e-002 -5.555283e-001
    outer loop
      vertex  1.157082e+001  3.000000e+001 -1.025029e+001
      vertex  1.015822e+001  3.084612e+001 -1.230283e+001
      vertex  1.043347e+001  3.177413e+001 -1.182609e+001
    endloop
  endfacet
  facet normal  8.412178e-001  6.222184e-002 -5.371042e-001
    outer loop
      vertex  1.157082e+001  3.000000e+001 -1.025029e+001
      vertex  1.043347e+001  3.177413e+001 -1.182609e+001
      vertex  1.087217e+001  3.240216e+001 -1.106623e+001
    endloop
  endfacet
  facet normal  8.674619e-001  8.584031e-002 -4.900423e-001
    outer loop
      vertex  1.157082e+001  3.000000e+001 -1.025029e+001
      vertex  1.087217e+001  3.240216e+001 -1.106623e+001
      vertex  1.138417e+001  3.250128e+001 -1.014253e+001
    endloop
  endfacet
  facet normal  6.637239e-001  2.811283e-001  6.931359e-001
    outer loop
      vertex  1.299439e+001  2.646597e+001 -1.854194e+001
      vertex  1.064596e+001  2.942057e+001 -1.749152e+001
      vertex  1.104719e+001  2.675985e+001 -1.679657e+001
    endloop
  endfacet
  facet normal  9.221461e-001  2.218333e-001  3.169172e-001
    outer loop
      vertex  1.104719e+001  2.675985e+001 -1.679657e+001
      vertex  1.064596e+001  2.942057e+001 -1.749152e+001
      vertex  9.760645e+000  2.956682e+001 -1.501785e+001
    endloop
  endfacet
  facet normal  9.221462e-001  2.218334e-001  3.169171e-001
    outer loop
      vertex  1.104719e+001  2.675985e+001 -1.679657e+001
      vertex  9.760645e+000  2.956682e+001 -1.501785e+001
      vertex  1.006060e+001  2.757769e+001 -1.449831e+001
    endloop
  endfacet
  facet normal  9.843829e-001  1.132381e-001 -1.347867e-001
    outer loop
      vertex  1.006060e+001  2.757769e+001 -1.449831e+001
      vertex  9.760645e+000  2.956682e+001 -1.501785e+001
      vertex  1.009297e+001  2.977503e+001 -1.241584e+001
    endloop
  endfacet
  facet normal  9.843830e-001  1.132378e-001 -1.347864e-001
    outer loop
      vertex  1.006060e+001  2.757769e+001 -1.449831e+001
      vertex  1.009297e+001  2.977503e+001 -1.241584e+001
      vertex  1.024875e+001  2.874199e+001 -1.214602e+001
    endloop
  endfacet
  facet normal  6.637239e-001  2.811281e-001  6.931361e-001
    outer loop
      vertex  1.064596e+001  2.942057e+001 -1.749152e+001
      vertex  1.299439e+001  2.646597e+001 -1.854194e+001
      vertex  1.255676e+001  2.936801e+001 -1.929992e+001
    endloop
  endfacet
  facet normal  2.684113e-001  2.811280e-001  9.213699e-001
    outer loop
      vertex  1.255676e+001  2.936801e+001 -1.929992e+001
      vertex  1.299439e+001  2.646597e+001 -1.854194e+001
      vertex  1.547952e+001  2.675985e+001 -1.935557e+001
    endloop
  endfacet
  facet normal  2.684116e-001  2.811283e-001  9.213697e-001
    outer loop
      vertex  1.255676e+001  2.936801e+001 -1.929992e+001
      vertex  1.547952e+001  2.675985e+001 -1.935557e+001
      vertex  1.507829e+001  2.942057e+001 -2.005053e+001
    endloop
  endfacet
  facet normal -1.866142e-001  2.218334e-001  9.570606e-001
    outer loop
      vertex  1.507829e+001  2.942057e+001 -2.005053e+001
      vertex  1.547952e+001  2.675985e+001 -1.935557e+001
      vertex  1.796317e+001  2.757769e+001 -1.906086e+001
    endloop
  endfacet
  facet normal -1.866144e-001  2.218331e-001  9.570607e-001
    outer loop
      vertex  1.507829e+001  2.942057e+001 -2.005053e+001
      vertex  1.796317e+001  2.757769e+001 -1.906086e+001
      vertex  1.766321e+001  2.956682e+001 -1.958040e+001
    endloop
  endfacet
  facet normal -6.089204e-001  1.132374e-001  7.851071e-001
    outer loop
      vertex  1.766321e+001  2.956682e+001 -1.958040e+001
      vertex  1.796317e+001  2.757769e+001 -1.906086e+001
      vertex  1.990623e+001  2.874199e+001 -1.772177e+001
    endloop
  endfacet
  facet normal -6.089201e-001  1.132386e-001  7.851072e-001
    outer loop
      vertex  1.766321e+001  2.956682e+001 -1.958040e+001
      vertex  1.990623e+001  2.874199e+001 -1.772177e+001
      vertex  1.975045e+001  2.977503e+001 -1.799159e+001
    endloop
  endfacet
  facet normal  7.800359e-001 -5.225007e-001 -3.442920e-001
    outer loop
      vertex  1.245791e+001  3.532055e+001 -1.076245e+001
      vertex  1.175141e+001  3.399706e+001 -1.035456e+001
      vertex  1.126098e+001  3.462535e+001 -1.241919e+001
    endloop
  endfacet
  facet normal  9.160747e-001 -2.672855e-001 -2.989408e-001
    outer loop
      vertex  1.126098e+001  3.462535e+001 -1.241919e+001
      vertex  1.175141e+001  3.399706e+001 -1.035456e+001
      vertex  1.138417e+001  3.250128e+001 -1.014253e+001
    endloop
  endfacet
  facet normal  8.209163e-001 -3.947093e-001 -4.126753e-001
    outer loop
      vertex  1.126098e+001  3.462535e+001 -1.241919e+001
      vertex  1.138417e+001  3.250128e+001 -1.014253e+001
      vertex  1.087217e+001  3.240216e+001 -1.106623e+001
    endloop
  endfacet
  facet normal  4.666432e-001 -8.809832e-001 -7.818430e-002
    outer loop
      vertex  1.465294e+001  3.707020e+001 -1.202975e+001
      vertex  1.345015e+001  3.637147e+001 -1.133532e+001
      vertex  1.265286e+001  3.618702e+001 -1.401547e+001
    endloop
  endfacet
  facet normal  6.761608e-001 -7.210048e-001 -1.515215e-001
    outer loop
      vertex  1.265286e+001  3.618702e+001 -1.401547e+001
      vertex  1.345015e+001  3.637147e+001 -1.133532e+001
      vertex  1.245791e+001  3.532055e+001 -1.076245e+001
    endloop
  endfacet
  facet normal  6.509009e-001 -7.423832e-001 -1.587296e-001
    outer loop
      vertex  1.265286e+001  3.618702e+001 -1.401547e+001
      vertex  1.245791e+001  3.532055e+001 -1.076245e+001
      vertex  1.126098e+001  3.462535e+001 -1.241919e+001
    endloop
  endfacet
  facet normal -2.088909e-001 -9.188494e-001  3.347840e-001
    outer loop
      vertex  1.857559e+001  3.667890e+001 -1.429450e+001
      vertex  1.731658e+001  3.722997e+001 -1.356760e+001
      vertex  1.708519e+001  3.618702e+001 -1.657447e+001
    endloop
  endfacet
  facet normal  9.075158e-002 -9.430236e-001  3.201105e-001
    outer loop
      vertex  1.708519e+001  3.618702e+001 -1.657447e+001
      vertex  1.731658e+001  3.722997e+001 -1.356760e+001
      vertex  1.597514e+001  3.736377e+001 -1.279313e+001
    endloop
  endfacet
  facet normal -1.084410e-001 -9.577898e-001  2.662313e-001
    outer loop
      vertex  1.708519e+001  3.618702e+001 -1.657447e+001
      vertex  1.597514e+001  3.736377e+001 -1.279313e+001
      vertex  1.474569e+001  3.674817e+001 -1.550860e+001
    endloop
  endfacet
  facet normal  2.681966e-001 -9.585807e-001  9.588408e-002
    outer loop
      vertex  1.474569e+001  3.674817e+001 -1.550860e+001
      vertex  1.597514e+001  3.736377e+001 -1.279313e+001
      vertex  1.465294e+001  3.707020e+001 -1.202975e+001
    endloop
  endfacet
  facet normal  3.209756e-001 -9.422321e-001  9.577788e-002
    outer loop
      vertex  1.474569e+001  3.674817e+001 -1.550860e+001
      vertex  1.465294e+001  3.707020e+001 -1.202975e+001
      vertex  1.265286e+001  3.618702e+001 -1.401547e+001
    endloop
  endfacet
  facet normal -6.315226e-001 -6.069077e-001  4.825372e-001
    outer loop
      vertex  2.047824e+001  3.452051e+001 -1.539299e+001
      vertex  1.965679e+001  3.575235e+001 -1.491873e+001
      vertex  1.916355e+001  3.462535e+001 -1.698174e+001
    endloop
  endfacet
  facet normal -3.691103e-001 -7.756504e-001  5.119805e-001
    outer loop
      vertex  1.916355e+001  3.462535e+001 -1.698174e+001
      vertex  1.965679e+001  3.575235e+001 -1.491873e+001
      vertex  1.857559e+001  3.667890e+001 -1.429450e+001
    endloop
  endfacet
  facet normal -4.701217e-001 -7.478895e-001  4.686649e-001
    outer loop
      vertex  1.916355e+001  3.462535e+001 -1.698174e+001
      vertex  1.857559e+001  3.667890e+001 -1.429450e+001
      vertex  1.708519e+001  3.618702e+001 -1.657447e+001
    endloop
  endfacet
  facet normal -8.714740e-001 -1.037464e-001  4.793430e-001
    outer loop
      vertex  2.111737e+001  3.153108e+001 -1.576200e+001
      vertex  2.097772e+001  3.307672e+001 -1.568137e+001
      vertex  2.052965e+001  3.240216e+001 -1.664198e+001
    endloop
  endfacet
  facet normal -7.176538e-001 -3.665400e-001  5.921329e-001
    outer loop
      vertex  2.052965e+001  3.240216e+001 -1.664198e+001
      vertex  2.097772e+001  3.307672e+001 -1.568137e+001
      vertex  2.047824e+001  3.452051e+001 -1.539299e+001
    endloop
  endfacet
  facet normal -7.302936e-001 -3.600250e-001  5.805628e-001
    outer loop
      vertex  2.052965e+001  3.240216e+001 -1.664198e+001
      vertex  2.047824e+001  3.452051e+001 -1.539299e+001
      vertex  1.916355e+001  3.462535e+001 -1.698174e+001
    endloop
  endfacet
  facet normal  4.809963e-001 -7.916956e-001  3.766438e-001
    outer loop
      vertex  1.351328e+001  3.498391e+001 -1.764318e+001
      vertex  1.265286e+001  3.618702e+001 -1.401547e+001
      vertex  1.152294e+001  3.456946e+001 -1.597255e+001
    endloop
  endfacet
  facet normal  7.779597e-001 -6.247125e-001  6.717807e-002
    outer loop
      vertex  1.152294e+001  3.456946e+001 -1.597255e+001
      vertex  1.265286e+001  3.618702e+001 -1.401547e+001
      vertex  1.126098e+001  3.462535e+001 -1.241919e+001
    endloop
  endfacet
  facet normal  7.779596e-001 -6.247128e-001  6.717806e-002
    outer loop
      vertex  1.152294e+001  3.456946e+001 -1.597255e+001
      vertex  1.126098e+001  3.462535e+001 -1.241919e+001
      vertex  1.041627e+001  3.341608e+001 -1.388228e+001
    endloop
  endfacet
  facet normal  9.107806e-001 -3.188942e-001 -2.622692e-001
    outer loop
      vertex  1.041627e+001  3.341608e+001 -1.388228e+001
      vertex  1.126098e+001  3.462535e+001 -1.241919e+001
      vertex  1.087217e+001  3.240216e+001 -1.106623e+001
    endloop
  endfacet
  facet normal  9.107808e-001 -3.188936e-001 -2.622690e-001
    outer loop
      vertex  1.041627e+001  3.341608e+001 -1.388228e+001
      vertex  1.087217e+001  3.240216e+001 -1.106623e+001
      vertex  1.043347e+001  3.177413e+001 -1.182609e+001
    endloop
  endfacet
  facet normal  4.809963e-001 -7.916957e-001  3.766439e-001
    outer loop
      vertex  1.265286e+001  3.618702e+001 -1.401547e+001
      vertex  1.351328e+001  3.498391e+001 -1.764318e+001
      vertex  1.474569e+001  3.674817e+001 -1.550860e+001
    endloop
  endfacet
  facet normal  8.568499e-002 -7.916958e-001  6.048768e-001
    outer loop
      vertex  1.474569e+001  3.674817e+001 -1.550860e+001
      vertex  1.351328e+001  3.498391e+001 -1.764318e+001
      vertex  1.595527e+001  3.456946e+001 -1.853156e+001
    endloop
  endfacet
  facet normal  8.568511e-002 -7.916957e-001  6.048769e-001
    outer loop
      vertex  1.474569e+001  3.674817e+001 -1.550860e+001
      vertex  1.595527e+001  3.456946e+001 -1.853156e+001
      vertex  1.708519e+001  3.618702e+001 -1.657447e+001
    endloop
  endfacet
  facet normal -3.308019e-001 -6.247125e-001  7.073219e-001
    outer loop
      vertex  1.708519e+001  3.618702e+001 -1.657447e+001
      vertex  1.595527e+001  3.456946e+001 -1.853156e+001
      vertex  1.831883e+001  3.341608e+001 -1.844483e+001
    endloop
  endfacet
  facet normal -3.308021e-001 -6.247126e-001  7.073219e-001
    outer loop
      vertex  1.708519e+001  3.618702e+001 -1.657447e+001
      vertex  1.831883e+001  3.341608e+001 -1.844483e+001
      vertex  1.916355e+001  3.462535e+001 -1.698174e+001
    endloop
  endfacet
  facet normal -6.825218e-001 -3.188943e-001  6.576247e-001
    outer loop
      vertex  1.916355e+001  3.462535e+001 -1.698174e+001
      vertex  1.831883e+001  3.341608e+001 -1.844483e+001
      vertex  2.009095e+001  3.177413e+001 -1.740184e+001
    endloop
  endfacet
  facet normal -6.825229e-001 -3.188945e-001  6.576236e-001
    outer loop
      vertex  1.916355e+001  3.462535e+001 -1.698174e+001
      vertex  2.009095e+001  3.177413e+001 -1.740184e+001
      vertex  2.052965e+001  3.240216e+001 -1.664198e+001
    endloop
  endfacet
  facet normal  6.163387e-001 -4.967180e-001  6.110629e-001
    outer loop
      vertex  1.274006e+001  3.237691e+001 -1.898245e+001
      vertex  1.152294e+001  3.456946e+001 -1.597255e+001
      vertex  1.081402e+001  3.217926e+001 -1.720044e+001
    endloop
  endfacet
  facet normal  8.847556e-001 -3.919511e-001  2.521544e-001
    outer loop
      vertex  1.081402e+001  3.217926e+001 -1.720044e+001
      vertex  1.152294e+001  3.456946e+001 -1.597255e+001
      vertex  1.041627e+001  3.341608e+001 -1.388228e+001
    endloop
  endfacet
  facet normal  8.847554e-001 -3.919517e-001  2.521546e-001
    outer loop
      vertex  1.081402e+001  3.217926e+001 -1.720044e+001
      vertex  1.041627e+001  3.341608e+001 -1.388228e+001
      vertex  9.886281e+000  3.162919e+001 -1.480024e+001
    endloop
  endfacet
  facet normal  9.652963e-001 -2.000775e-001 -1.678457e-001
    outer loop
      vertex  9.886281e+000  3.162919e+001 -1.480024e+001
      vertex  1.041627e+001  3.341608e+001 -1.388228e+001
      vertex  1.043347e+001  3.177413e+001 -1.182609e+001
    endloop
  endfacet
  facet normal  9.652963e-001 -2.000773e-001 -1.678456e-001
    outer loop
      vertex  9.886281e+000  3.162919e+001 -1.480024e+001
      vertex  1.043347e+001  3.177413e+001 -1.182609e+001
      vertex  1.015822e+001  3.084612e+001 -1.230283e+001
    endloop
  endfacet
  facet normal  6.163383e-001 -4.967184e-001  6.110629e-001
    outer loop
      vertex  1.152294e+001  3.456946e+001 -1.597255e+001
      vertex  1.274006e+001  3.237691e+001 -1.898245e+001
      vertex  1.351328e+001  3.498391e+001 -1.764318e+001
    endloop
  endfacet
  facet normal  2.210266e-001 -4.967184e-001  8.392962e-001
    outer loop
      vertex  1.351328e+001  3.498391e+001 -1.764318e+001
      vertex  1.274006e+001  3.237691e+001 -1.898245e+001
      vertex  1.524634e+001  3.217926e+001 -1.975945e+001
    endloop
  endfacet
  facet normal  2.210271e-001 -4.967182e-001  8.392962e-001
    outer loop
      vertex  1.351328e+001  3.498391e+001 -1.764318e+001
      vertex  1.524634e+001  3.217926e+001 -1.975945e+001
      vertex  1.595527e+001  3.456946e+001 -1.853156e+001
    endloop
  endfacet
  facet normal -2.240052e-001 -3.919514e-001  8.922980e-001
    outer loop
      vertex  1.595527e+001  3.456946e+001 -1.853156e+001
      vertex  1.524634e+001  3.217926e+001 -1.975945e+001
      vertex  1.778885e+001  3.162919e+001 -1.936279e+001
    endloop
  endfacet
  facet normal -2.240062e-001 -3.919519e-001  8.922976e-001
    outer loop
      vertex  1.595527e+001  3.456946e+001 -1.853156e+001
      vertex  1.778885e+001  3.162919e+001 -1.936279e+001
      vertex  1.831883e+001  3.341608e+001 -1.844483e+001
    endloop
  endfacet
  facet normal -6.280072e-001 -2.000779e-001  7.520478e-001
    outer loop
      vertex  1.831883e+001  3.341608e+001 -1.844483e+001
      vertex  1.778885e+001  3.162919e+001 -1.936279e+001
      vertex  1.981570e+001  3.084612e+001 -1.787857e+001
    endloop
  endfacet
  facet normal -6.280058e-001 -2.000767e-001  7.520493e-001
    outer loop
      vertex  1.831883e+001  3.341608e+001 -1.844483e+001
      vertex  1.981570e+001  3.084612e+001 -1.787857e+001
      vertex  2.009095e+001  3.177413e+001 -1.740184e+001
    endloop
  endfacet
  facet normal  6.808859e-001 -1.177500e-001  7.228619e-001
    outer loop
      vertex  1.255676e+001  2.936801e+001 -1.929992e+001
      vertex  1.081402e+001  3.217926e+001 -1.720044e+001
      vertex  1.064596e+001  2.942057e+001 -1.749152e+001
    endloop
  endfacet
  facet normal  9.356885e-001 -9.291463e-002  3.403732e-001
    outer loop
      vertex  1.064596e+001  2.942057e+001 -1.749152e+001
      vertex  1.081402e+001  3.217926e+001 -1.720044e+001
      vertex  9.886281e+000  3.162919e+001 -1.480024e+001
    endloop
  endfacet
  facet normal  9.356887e-001 -9.291445e-002  3.403731e-001
    outer loop
      vertex  1.064596e+001  2.942057e+001 -1.749152e+001
      vertex  9.886281e+000  3.162919e+001 -1.480024e+001
      vertex  9.760645e+000  2.956682e+001 -1.501785e+001
    endloop
  endfacet
  facet normal  9.912959e-001 -4.742950e-002 -1.228131e-001
    outer loop
      vertex  9.760645e+000  2.956682e+001 -1.501785e+001
      vertex  9.886281e+000  3.162919e+001 -1.480024e+001
      vertex  1.015822e+001  3.084612e+001 -1.230283e+001
    endloop
  endfacet
  facet normal  9.912958e-001 -4.742940e-002 -1.228131e-001
    outer loop
      vertex  9.760645e+000  2.956682e+001 -1.501785e+001
      vertex  1.015822e+001  3.084612e+001 -1.230283e+001
      vertex  1.009297e+001  2.977503e+001 -1.241584e+001
    endloop
  endfacet
  facet normal  6.808862e-001 -1.177496e-001  7.228617e-001
    outer loop
      vertex  1.081402e+001  3.217926e+001 -1.720044e+001
      vertex  1.255676e+001  2.936801e+001 -1.929992e+001
      vertex  1.274006e+001  3.237691e+001 -1.898245e+001
    endloop
  endfacet
  facet normal  2.855739e-001 -1.177495e-001  9.510955e-001
    outer loop
      vertex  1.274006e+001  3.237691e+001 -1.898245e+001
      vertex  1.255676e+001  2.936801e+001 -1.929992e+001
      vertex  1.507829e+001  2.942057e+001 -2.005053e+001
    endloop
  endfacet
  facet normal  2.855736e-001 -1.177497e-001  9.510955e-001
    outer loop
      vertex  1.274006e+001  3.237691e+001 -1.898245e+001
      vertex  1.507829e+001  2.942057e+001 -2.005053e+001
      vertex  1.524634e+001  3.217926e+001 -1.975945e+001
    endloop
  endfacet
  facet normal -1.730722e-001 -9.291420e-002  9.805167e-001
    outer loop
      vertex  1.524634e+001  3.217926e+001 -1.975945e+001
      vertex  1.507829e+001  2.942057e+001 -2.005053e+001
      vertex  1.766321e+001  2.956682e+001 -1.958040e+001
    endloop
  endfacet
  facet normal -1.730720e-001 -9.291404e-002  9.805168e-001
    outer loop
      vertex  1.524634e+001  3.217926e+001 -1.975945e+001
      vertex  1.766321e+001  2.956682e+001 -1.958040e+001
      vertex  1.778885e+001  3.162919e+001 -1.936279e+001
    endloop
  endfacet
  facet normal -6.020073e-001 -4.742901e-002  7.970809e-001
    outer loop
      vertex  1.778885e+001  3.162919e+001 -1.936279e+001
      vertex  1.766321e+001  2.956682e+001 -1.958040e+001
      vertex  1.975045e+001  2.977503e+001 -1.799159e+001
    endloop
  endfacet
  facet normal -6.020077e-001 -4.742979e-002  7.970804e-001
    outer loop
      vertex  1.778885e+001  3.162919e+001 -1.936279e+001
      vertex  1.975045e+001  2.977503e+001 -1.799159e+001
      vertex  1.981570e+001  3.084612e+001 -1.787857e+001
    endloop
  endfacet
  facet normal  0.000000e+000  1.000000e+000  0.000000e+000
    outer loop
      vertex  8.000000e+000  3.400000e+001 -9.920728e+000
      vertex  8.000000e+000  3.400000e+001  2.000000e+001
      vertex  9.580352e+000  3.400000e+001 -9.920728e+000
    endloop
  endfacet
  facet normal  0.000000e+000  1.000000e+000  -0.000000e+000
    outer loop
      vertex  9.580352e+000  3.400000e+001 -9.920728e+000
      vertex  8.000000e+000  3.400000e+001  2.000000e+001
      vertex  9.906359e+000  3.400000e+001 -9.289313e+000
    endloop
  endfacet
  facet normal  0.000000e+000  1.000000e+000  0.000000e+000
    outer loop
      vertex  8.000000e+000  3.400000e+001  2.000000e+001
      vertex  1.100000e+001  3.400000e+001  2.000000e+001
      vertex  9.906359e+000  3.400000e+001 -9.289313e+000
    endloop
  endfacet
  facet normal  -0.000000e+000  1.000000e+000  0.000000e+000
    outer loop
      vertex  9.906359e+000  3.400000e+001 -9.289313e+000
      vertex  1.100000e+001  3.400000e+001  2.000000e+001
      vertex  1.100000e+001  3.400000e+001 -9.920728e+000
    endloop
  endfacet
  facet normal -6.805328e-001 -7.121035e-001  1.725799e-001
    outer loop
      vertex  1.005502e+001  2.567860e+001 -9.375143e+000
      vertex  9.580352e+000  2.600000e+001 -9.920728e+000
      vertex  8.974669e+000  2.625756e+001 -1.124636e+001
    endloop
  endfacet
  facet normal -7.839617e-001 -4.707082e-001  4.047689e-001
    outer loop
      vertex  1.005502e+001  2.567860e+001 -9.375143e+000
      vertex  9.906359e+000  2.600000e+001 -9.289313e+000
      vertex  9.580352e+000  2.600000e+001 -9.920728e+000
    endloop
  endfacet
  facet normal -9.276138e-001 -3.494008e-001  1.321048e-001
    outer loop
      vertex  8.242524e+000  2.870252e+001 -9.920728e+000
      vertex  8.183799e+000  2.783930e+001 -1.261619e+001
      vertex  8.974669e+000  2.625756e+001 -1.124636e+001
    endloop
  endfacet
  facet normal -8.527490e-001 -4.221364e-001  3.076034e-001
    outer loop
      vertex  9.580352e+000  2.600000e+001 -9.920728e+000
      vertex  8.242524e+000  2.870252e+001 -9.920728e+000
      vertex  8.974669e+000  2.625756e+001 -1.124636e+001
    endloop
  endfacet
  facet normal -9.276977e-001  3.489722e-001  1.326472e-001
    outer loop
      vertex  8.399201e+000  3.170875e+001 -9.920728e+000
      vertex  8.974669e+000  3.374244e+001 -1.124636e+001
      vertex  8.183799e+000  3.216070e+001 -1.261619e+001
    endloop
  endfacet
  facet normal -7.839617e-001  4.707082e-001  4.047689e-001
    outer loop
      vertex  9.580352e+000  3.400000e+001 -9.920728e+000
      vertex  9.906359e+000  3.400000e+001 -9.289313e+000
      vertex  1.005502e+001  3.432140e+001 -9.375143e+000
    endloop
  endfacet
  facet normal -6.805338e-001  7.121020e-001  1.725817e-001
    outer loop
      vertex  9.580352e+000  3.400000e+001 -9.920728e+000
      vertex  1.005502e+001  3.432140e+001 -9.375143e+000
      vertex  8.974669e+000  3.374244e+001 -1.124636e+001
    endloop
  endfacet
  facet normal -8.472719e-001  4.367727e-001  3.022578e-001
    outer loop
      vertex  9.580352e+000  3.400000e+001 -9.920728e+000
      vertex  8.974669e+000  3.374244e+001 -1.124636e+001
      vertex  8.399201e+000  3.170875e+001 -9.920728e+000
    endloop
  endfacet
  facet normal -9.672970e-001  2.259818e-001  1.151899e-001
    outer loop
      vertex  8.000000e+000  3.000000e+001 -9.920728e+000
      vertex  8.399201e+000  3.170875e+001 -9.920728e+000
      vertex  8.183799e+000  3.216070e+001 -1.261619e+001
    endloop
  endfacet
  facet normal -9.915847e-001  1.252408e-001  3.277928e-002
    outer loop
      vertex  8.000000e+000  3.000000e+001 -9.920728e+000
      vertex  8.183799e+000  3.216070e+001 -1.261619e+001
      vertex  7.894320e+000  3.000000e+001 -1.311758e+001
    endloop
  endfacet
  facet normal -9.915847e-001 -1.252407e-001  3.277928e-002
    outer loop
      vertex  8.000000e+000  3.000000e+001 -9.920728e+000
      vertex  7.894320e+000  3.000000e+001 -1.311758e+001
      vertex  8.183799e+000  2.783930e+001 -1.261619e+001
    endloop
  endfacet
  facet normal -9.798250e-001 -1.831480e-001  8.000007e-002
    outer loop
      vertex  8.000000e+000  3.000000e+001 -9.920728e+000
      vertex  8.183799e+000  2.783930e+001 -1.261619e+001
      vertex  8.242524e+000  2.870252e+001 -9.920728e+000
    endloop
  endfacet
  facet normal -9.831252e-001 -1.544588e-001 -9.801738e-002
    outer loop
      vertex  7.894320e+000  3.000000e+001 -1.311758e+001
      vertex  8.571993e+000  2.738840e+001 -1.579927e+001
      vertex  8.183799e+000  2.783930e+001 -1.261619e+001
    endloop
  endfacet
  facet normal -7.721305e-001 -5.764481e-001  2.674359e-001
    outer loop
      vertex  1.005502e+001  2.567860e+001 -9.375143e+000
      vertex  8.974669e+000  2.625756e+001 -1.124636e+001
      vertex  1.041868e+001  2.369503e+001 -1.260072e+001
    endloop
  endfacet
  facet normal -9.083233e-001 -4.159332e-001  4.414244e-002
    outer loop
      vertex  9.311670e+000  2.517438e+001 -1.451811e+001
      vertex  8.974669e+000  2.625756e+001 -1.124636e+001
      vertex  8.183799e+000  2.783930e+001 -1.261619e+001
    endloop
  endfacet
  facet normal  8.515755e-001 -9.995658e-002 -5.146141e-001
    outer loop
      vertex  2.316524e+001  3.000000e+001 -1.694433e+001
      vertex  2.289170e+001  2.685649e+001 -1.678640e+001
      vertex  2.229021e+001  2.709578e+001 -1.782820e+001
    endloop
  endfacet
  facet normal  8.332056e-001 -8.473834e-002 -5.464320e-001
    outer loop
      vertex  2.316524e+001  3.000000e+001 -1.694433e+001
      vertex  2.229021e+001  2.709578e+001 -1.782820e+001
      vertex  2.178030e+001  2.777720e+001 -1.871140e+001
    endloop
  endfacet
  facet normal  8.191465e-001 -5.662029e-002 -5.707830e-001
    outer loop
      vertex  2.316524e+001  3.000000e+001 -1.694433e+001
      vertex  2.178030e+001  2.777720e+001 -1.871140e+001
      vertex  2.143958e+001  2.879703e+001 -1.930153e+001
    endloop
  endfacet
  facet normal  8.115380e-001 -1.988309e-002 -5.839614e-001
    outer loop
      vertex  2.316524e+001  3.000000e+001 -1.694433e+001
      vertex  2.143958e+001  2.879703e+001 -1.930153e+001
      vertex  2.131994e+001  3.000000e+001 -1.950876e+001
    endloop
  endfacet
  facet normal  7.102997e-001 -4.752450e-001 -5.192463e-001
    outer loop
      vertex  2.229021e+001  2.709578e+001 -1.782820e+001
      vertex  2.289170e+001  2.685649e+001 -1.678640e+001
      vertex  2.045288e+001  2.453100e+001 -1.799413e+001
    endloop
  endfacet
  facet normal  7.102994e-001 -4.752444e-001 -5.192471e-001
    outer loop
      vertex  2.045288e+001  2.453100e+001 -1.799413e+001
      vertex  2.289170e+001  2.685649e+001 -1.678640e+001
      vertex  2.158555e+001  2.408040e+001 -1.603230e+001
    endloop
  endfacet
  facet normal  4.584791e-001 -7.711021e-001 -4.418127e-001
    outer loop
      vertex  2.045288e+001  2.453100e+001 -1.799413e+001
      vertex  2.158555e+001  2.408040e+001 -1.603230e+001
      vertex  1.793979e+001  2.270567e+001 -1.741624e+001
    endloop
  endfacet
  facet normal  4.584791e-001 -7.711020e-001 -4.418129e-001
    outer loop
      vertex  1.793979e+001  2.270567e+001 -1.741624e+001
      vertex  2.158555e+001  2.408040e+001 -1.603230e+001
      vertex  1.945050e+001  2.210467e+001 -1.479962e+001
    endloop
  endfacet
  facet normal  1.395539e-001 -9.444671e-001 -2.975007e-001
    outer loop
      vertex  1.793979e+001  2.270567e+001 -1.741624e+001
      vertex  1.945050e+001  2.210467e+001 -1.479962e+001
      vertex  1.514289e+001  2.190446e+001 -1.618466e+001
    endloop
  endfacet
  facet normal  1.395539e-001 -9.444671e-001 -2.975007e-001
    outer loop
      vertex  1.514289e+001  2.190446e+001 -1.618466e+001
      vertex  1.945050e+001  2.210467e+001 -1.479962e+001
      vertex  1.681953e+001  2.123745e+001 -1.328063e+001
    endloop
  endfacet
  facet normal -1.981342e-001 -9.740581e-001 -1.093329e-001
    outer loop
      vertex  1.514289e+001  2.190446e+001 -1.618466e+001
      vertex  1.681953e+001  2.123745e+001 -1.328063e+001
      vertex  1.249837e+001  2.225233e+001 -1.449146e+001
    endloop
  endfacet
  facet normal -1.981342e-001 -9.740580e-001 -1.093329e-001
    outer loop
      vertex  1.249837e+001  2.225233e+001 -1.449146e+001
      vertex  1.681953e+001  2.123745e+001 -1.328063e+001
      vertex  1.410296e+001  2.161398e+001 -1.171222e+001
    endloop
  endfacet
  facet normal -5.069847e-001 -8.565968e-001  9.596104e-002
    outer loop
      vertex  1.249837e+001  2.225233e+001 -1.449146e+001
      vertex  1.410296e+001  2.161398e+001 -1.171222e+001
      vertex  1.041868e+001  2.369503e+001 -1.260072e+001
    endloop
  endfacet
  facet normal -5.069847e-001 -8.565969e-001  9.596045e-002
    outer loop
      vertex  1.041868e+001  2.369503e+001 -1.260072e+001
      vertex  1.410296e+001  2.161398e+001 -1.171222e+001
      vertex  1.172448e+001  2.317555e+001 -1.033901e+001
    endloop
  endfacet
  facet normal -7.413725e-001 -6.057229e-001  2.889062e-001
    outer loop
      vertex  1.041868e+001  2.369503e+001 -1.260072e+001
      vertex  1.172448e+001  2.317555e+001 -1.033901e+001
      vertex  1.005502e+001  2.567860e+001 -9.375143e+000
    endloop
  endfacet
  facet normal  5.199430e-001 -9.453249e-002 -8.489540e-001
    outer loop
      vertex  2.131994e+001  3.000000e+001 -1.950876e+001
      vertex  2.143958e+001  2.879703e+001 -1.930153e+001
      vertex  1.862575e+001  3.000000e+001 -2.115882e+001
    endloop
  endfacet
  facet normal  5.199432e-001 -9.453204e-002 -8.489540e-001
    outer loop
      vertex  1.862575e+001  3.000000e+001 -2.115882e+001
      vertex  2.143958e+001  2.879703e+001 -1.930153e+001
      vertex  1.885105e+001  2.773467e+001 -2.076859e+001
    endloop
  endfacet
  facet normal  1.496184e-001 -1.533820e-001 -9.767744e-001
    outer loop
      vertex  1.862575e+001  3.000000e+001 -2.115882e+001
      vertex  1.885105e+001  2.773467e+001 -2.076859e+001
      vertex  1.550283e+001  3.000000e+001 -2.163718e+001
    endloop
  endfacet
  facet normal  1.496188e-001 -1.533815e-001 -9.767745e-001
    outer loop
      vertex  1.550283e+001  3.000000e+001 -2.163718e+001
      vertex  1.885105e+001  2.773467e+001 -2.076859e+001
      vertex  1.580333e+001  2.697859e+001 -2.111670e+001
    endloop
  endfacet
  facet normal -2.387464e-001 -1.878660e-001 -9.527364e-001
    outer loop
      vertex  1.550283e+001  3.000000e+001 -2.163718e+001
      vertex  1.580333e+001  2.697859e+001 -2.111670e+001
      vertex  1.243825e+001  3.000000e+001 -2.086922e+001
    endloop
  endfacet
  facet normal -2.387464e-001 -1.878659e-001 -9.527363e-001
    outer loop
      vertex  1.243825e+001  3.000000e+001 -2.086922e+001
      vertex  1.580333e+001  2.697859e+001 -2.111670e+001
      vertex  1.277176e+001  2.664672e+001 -2.029158e+001
    endloop
  endfacet
  facet normal -5.882872e-001 -1.937520e-001 -7.850976e-001
    outer loop
      vertex  1.243825e+001  3.000000e+001 -2.086922e+001
      vertex  1.277176e+001  2.664672e+001 -2.029158e+001
      vertex  9.909956e+000  3.000000e+001 -1.897473e+001
    endloop
  endfacet
  facet normal -5.882872e-001 -1.937519e-001 -7.850977e-001
    outer loop
      vertex  9.909956e+000  3.000000e+001 -1.897473e+001
      vertex  1.277176e+001  2.664672e+001 -2.029158e+001
      vertex  1.022913e+001  2.679081e+001 -1.842190e+001
    endloop
  endfacet
  facet normal -8.500891e-001 -1.703875e-001 -4.983139e-001
    outer loop
      vertex  9.909956e+000  3.000000e+001 -1.897473e+001
      vertex  1.022913e+001  2.679081e+001 -1.842190e+001
      vertex  8.312252e+000  3.000000e+001 -1.624916e+001
    endloop
  endfacet
  facet normal -8.500892e-001 -1.703879e-001 -4.983135e-001
    outer loop
      vertex  8.312252e+000  3.000000e+001 -1.624916e+001
      vertex  1.022913e+001  2.679081e+001 -1.842190e+001
      vertex  8.571993e+000  2.738840e+001 -1.579927e+001
    endloop
  endfacet
  facet normal -9.839908e-001 -1.204860e-001 -1.313211e-001
    outer loop
      vertex  8.312252e+000  3.000000e+001 -1.624916e+001
      vertex  8.571993e+000  2.738840e+001 -1.579927e+001
      vertex  7.894320e+000  3.000000e+001 -1.311758e+001
    endloop
  endfacet
  facet normal  5.561188e-001 -2.692035e-001 -7.862960e-001
    outer loop
      vertex  2.143958e+001  2.879703e+001 -1.930153e+001
      vertex  2.178030e+001  2.777720e+001 -1.871140e+001
      vertex  1.885105e+001  2.773467e+001 -2.076859e+001
    endloop
  endfacet
  facet normal  5.561186e-001 -2.692048e-001 -7.862957e-001
    outer loop
      vertex  1.885105e+001  2.773467e+001 -2.076859e+001
      vertex  2.178030e+001  2.777720e+001 -1.871140e+001
      vertex  1.949265e+001  2.581421e+001 -1.965730e+001
    endloop
  endfacet
  facet normal  2.083156e-001 -4.367944e-001 -8.751087e-001
    outer loop
      vertex  1.885105e+001  2.773467e+001 -2.076859e+001
      vertex  1.949265e+001  2.581421e+001 -1.965730e+001
      vertex  1.580333e+001  2.697859e+001 -2.111670e+001
    endloop
  endfacet
  facet normal  2.083158e-001 -4.367941e-001 -8.751088e-001
    outer loop
      vertex  1.580333e+001  2.697859e+001 -2.111670e+001
      vertex  1.949265e+001  2.581421e+001 -1.965730e+001
      vertex  1.665908e+001  2.441716e+001 -1.963451e+001
    endloop
  endfacet
  facet normal -1.668532e-001 -5.349976e-001 -8.282135e-001
    outer loop
      vertex  1.580333e+001  2.697859e+001 -2.111670e+001
      vertex  1.665908e+001  2.441716e+001 -1.963451e+001
      vertex  1.277176e+001  2.664672e+001 -2.029158e+001
    endloop
  endfacet
  facet normal -1.668534e-001 -5.349979e-001 -8.282133e-001
    outer loop
      vertex  1.277176e+001  2.664672e+001 -2.029158e+001
      vertex  1.665908e+001  2.441716e+001 -1.963451e+001
      vertex  1.372150e+001  2.380394e+001 -1.864658e+001
    endloop
  endfacet
  facet normal -5.141412e-001 -5.517598e-001 -6.566734e-001
    outer loop
      vertex  1.277176e+001  2.664672e+001 -2.029158e+001
      vertex  1.372150e+001  2.380394e+001 -1.864658e+001
      vertex  1.022913e+001  2.679081e+001 -1.842190e+001
    endloop
  endfacet
  facet normal -5.141413e-001 -5.517598e-001 -6.566733e-001
    outer loop
      vertex  1.022913e+001  2.679081e+001 -1.842190e+001
      vertex  1.372150e+001  2.380394e+001 -1.864658e+001
      vertex  1.113806e+001  2.407019e+001 -1.684759e+001
    endloop
  endfacet
  facet normal -7.848847e-001 -4.852232e-001 -3.853758e-001
    outer loop
      vertex  1.022913e+001  2.679081e+001 -1.842190e+001
      vertex  1.113806e+001  2.407019e+001 -1.684759e+001
      vertex  8.571993e+000  2.738840e+001 -1.579927e+001
    endloop
  endfacet
  facet normal -7.848846e-001 -4.852231e-001 -3.853762e-001
    outer loop
      vertex  8.571993e+000  2.738840e+001 -1.579927e+001
      vertex  1.113806e+001  2.407019e+001 -1.684759e+001
      vertex  9.311670e+000  2.517438e+001 -1.451811e+001
    endloop
  endfacet
  facet normal -9.346874e-001 -3.495754e-001 -6.447054e-002
    outer loop
      vertex  8.571993e+000  2.738840e+001 -1.579927e+001
      vertex  9.311670e+000  2.517438e+001 -1.451811e+001
      vertex  8.183799e+000  2.783930e+001 -1.261619e+001
    endloop
  endfacet
  facet normal  6.229625e-001 -4.028925e-001 -6.705187e-001
    outer loop
      vertex  2.178030e+001  2.777720e+001 -1.871140e+001
      vertex  2.229021e+001  2.709578e+001 -1.782820e+001
      vertex  1.949265e+001  2.581421e+001 -1.965730e+001
    endloop
  endfacet
  facet normal  6.229625e-001 -4.028926e-001 -6.705187e-001
    outer loop
      vertex  1.949265e+001  2.581421e+001 -1.965730e+001
      vertex  2.229021e+001  2.709578e+001 -1.782820e+001
      vertex  2.045288e+001  2.453100e+001 -1.799413e+001
    endloop
  endfacet
  facet normal  3.167728e-001 -6.537083e-001 -6.872557e-001
    outer loop
      vertex  1.949265e+001  2.581421e+001 -1.965730e+001
      vertex  2.045288e+001  2.453100e+001 -1.799413e+001
      vertex  1.665908e+001  2.441716e+001 -1.963451e+001
    endloop
  endfacet
  facet normal  3.167726e-001 -6.537088e-001 -6.872553e-001
    outer loop
      vertex  1.665908e+001  2.441716e+001 -1.963451e+001
      vertex  2.045288e+001  2.453100e+001 -1.799413e+001
      vertex  1.793979e+001  2.270567e+001 -1.741624e+001
    endloop
  endfacet
  facet normal -3.401198e-002 -8.006806e-001 -5.981251e-001
    outer loop
      vertex  1.665908e+001  2.441716e+001 -1.963451e+001
      vertex  1.793979e+001  2.270567e+001 -1.741624e+001
      vertex  1.372150e+001  2.380394e+001 -1.864658e+001
    endloop
  endfacet
  facet normal -3.401181e-002 -8.006804e-001 -5.981255e-001
    outer loop
      vertex  1.372150e+001  2.380394e+001 -1.864658e+001
      vertex  1.793979e+001  2.270567e+001 -1.741624e+001
      vertex  1.514289e+001  2.190446e+001 -1.618466e+001
    endloop
  endfacet
  facet normal -3.771378e-001 -8.257665e-001 -4.193766e-001
    outer loop
      vertex  1.372150e+001  2.380394e+001 -1.864658e+001
      vertex  1.514289e+001  2.190446e+001 -1.618466e+001
      vertex  1.113806e+001  2.407019e+001 -1.684759e+001
    endloop
  endfacet
  facet normal -3.771379e-001 -8.257666e-001 -4.193765e-001
    outer loop
      vertex  1.113806e+001  2.407019e+001 -1.684759e+001
      vertex  1.514289e+001  2.190446e+001 -1.618466e+001
      vertex  1.249837e+001  2.225233e+001 -1.449146e+001
    endloop
  endfacet
  facet normal -6.644023e-001 -7.261877e-001 -1.766946e-001
    outer loop
      vertex  1.113806e+001  2.407019e+001 -1.684759e+001
      vertex  1.249837e+001  2.225233e+001 -1.449146e+001
      vertex  9.311670e+000  2.517438e+001 -1.451811e+001
    endloop
  endfacet
  facet normal -6.644023e-001 -7.261878e-001 -1.766944e-001
    outer loop
      vertex  9.311670e+000  2.517438e+001 -1.451811e+001
      vertex  1.249837e+001  2.225233e+001 -1.449146e+001
      vertex  1.041868e+001  2.369503e+001 -1.260072e+001
    endloop
  endfacet
  facet normal -8.478867e-001 -5.231768e-001  8.587271e-002
    outer loop
      vertex  9.311670e+000  2.517438e+001 -1.451811e+001
      vertex  1.041868e+001  2.369503e+001 -1.260072e+001
      vertex  8.974669e+000  2.625756e+001 -1.124636e+001
    endloop
  endfacet
  facet normal  0.000000e+000 -1.000000e+000  0.000000e+000
    outer loop
      vertex  8.000000e+000  2.600000e+001 -9.920728e+000
      vertex  9.580352e+000  2.600000e+001 -9.920728e+000
      vertex  8.000000e+000  2.600000e+001  2.000000e+001
    endloop
  endfacet
  facet normal  0.000000e+000 -9.999999e-001  0.000000e+000
    outer loop
      vertex  8.000000e+000  2.600000e+001  2.000000e+001
      vertex  9.580352e+000  2.600000e+001 -9.920728e+000
      vertex  9.906359e+000  2.600000e+001 -9.289313e+000
    endloop
  endfacet
  facet normal  0.000000e+000 -1.000000e+000  0.000000e+000
    outer loop
      vertex  8.000000e+000  2.600000e+001  2.000000e+001
      vertex  9.906359e+000  2.600000e+001 -9.289313e+000
      vertex  1.100000e+001  2.600000e+001  2.000000e+001
    endloop
  endfacet
  facet normal  0.000000e+000 -1.000000e+000  -0.000000e+000
    outer loop
      vertex  1.100000e+001  2.600000e+001  2.000000e+001
      vertex  9.906359e+000  2.600000e+001 -9.289313e+000
      vertex  1.100000e+001  2.600000e+001 -9.920728e+000
    endloop
  endfacet
  facet normal  0.000000e+000  -0.000000e+000 -1.000000e+000
    outer loop
      vertex  8.000000e+000  2.600000e+001 -9.920728e+000
      vertex  8.242524e+000  2.870252e+001 -9.920728e+000
      vertex  9.580352e+000  2.600000e+001 -9.920728e+000
    endloop
  endfacet
  facet normal  0.000000e+000  0.000000e+000 -9.999999e-001
    outer loop
      vertex  8.000000e+000  2.600000e+001 -9.920728e+000
      vertex  8.000000e+000  3.000000e+001 -9.920728e+000
      vertex  8.242524e+000  2.870252e+001 -9.920728e+000
    endloop
  endfacet
  facet normal  -0.000000e+000  0.000000e+000 -1.000000e+000
    outer loop
      vertex  8.000000e+000  3.400000e+001 -9.920728e+000
      vertex  8.399201e+000  3.170875e+001 -9.920728e+000
      vertex  8.000000e+000  3.000000e+001 -9.920728e+000
    endloop
  endfacet
  facet normal  -0.000000e+000  0.000000e+000 -1.000000e+000
    outer loop
      vertex  8.000000e+000  3.400000e+001 -9.920728e+000
      vertex  9.580352e+000  3.400000e+001 -9.920728e+000
      vertex  8.399201e+000  3.170875e+001 -9.920728e+000
    endloop
  endfacet
  facet normal  1.000000e+000  0.000000e+000  0.000000e+000
    outer loop
      vertex  1.100000e+001  3.400000e+001 -9.920728e+000
      vertex  1.100000e+001  3.400000e+001  2.000000e+001
      vertex  1.100000e+001  3.250000e+001  2.000000e+001
    endloop
  endfacet
  facet normal  1.000000e+000  0.000000e+000  0.000000e+000
    outer loop
      vertex  1.100000e+001  3.400000e+001 -9.920728e+000
      vertex  1.100000e+001  3.250000e+001  2.000000e+001
      vertex  1.100000e+001  3.176777e+001  1.823223e+001
    endloop
  endfacet
  facet normal  1.000000e+000  0.000000e+000  0.000000e+000
    outer loop
      vertex  1.100000e+001  3.400000e+001 -9.920728e+000
      vertex  1.100000e+001  3.176777e+001  1.823223e+001
      vertex  1.100000e+001  3.000000e+001  1.750000e+001
    endloop
  endfacet
  facet normal  1.000000e+000  0.000000e+000  0.000000e+000
    outer loop
      vertex  1.100000e+001  3.400000e+001 -9.920728e+000
      vertex  1.100000e+001  3.000000e+001  1.750000e+001
      vertex  1.100000e+001  2.600000e+001 -9.920728e+000
    endloop
  endfacet
  facet normal  1.000000e+000  0.000000e+000  0.000000e+000
    outer loop
      vertex  1.100000e+001  2.600000e+001 -9.920728e+000
      vertex  1.100000e+001  3.000000e+001  1.750000e+001
      vertex  1.100000e+001  2.823223e+001  1.823223e+001
    endloop
  endfacet
  facet normal  1.000000e+000  0.000000e+000  0.000000e+000
    outer loop
      vertex  1.100000e+001  2.600000e+001 -9.920728e+000
      vertex  1.100000e+001  2.823223e+001  1.823223e+001
      vertex  1.100000e+001  2.750000e+001  2.000000e+001
    endloop
  endfacet
  facet normal  1.000000e+000  0.000000e+000  0.000000e+000
    outer loop
      vertex  1.100000e+001  2.600000e+001 -9.920728e+000
      vertex  1.100000e+001  2.750000e+001  2.000000e+001
      vertex  1.100000e+001  2.600000e+001  2.000000e+001
    endloop
  endfacet
  facet normal  9.999999e-001  -0.000000e+000  0.000000e+000
    outer loop
      vertex  1.100000e+001  3.123607e+001  2.380423e+001
      vertex  1.100000e+001  2.876393e+001  2.380423e+001
      vertex  1.100000e+001  3.000000e+001  2.250000e+001
    endloop
  endfacet
  facet normal  9.999999e-001  0.000000e+000  0.000000e+000
    outer loop
      vertex  1.100000e+001  3.000000e+001  2.250000e+001
      vertex  1.100000e+001  2.876393e+001  2.380423e+001
      vertex  1.100000e+001  2.676393e+001  2.235114e+001
    endloop
  endfacet
  facet normal  1.000000e+000  -0.000000e+000  0.000000e+000
    outer loop
      vertex  1.100000e+001  3.000000e+001  2.250000e+001
      vertex  1.100000e+001  2.676393e+001  2.235114e+001
      vertex  1.100000e+001  2.823223e+001  2.176777e+001
    endloop
  endfacet
  facet normal  1.000000e+000  0.000000e+000  0.000000e+000
    outer loop
      vertex  1.100000e+001  2.750000e+001  2.000000e+001
      vertex  1.100000e+001  2.823223e+001  2.176777e+001
      vertex  1.100000e+001  2.600000e+001  2.000000e+001
    endloop
  endfacet
  facet normal  1.000000e+000  0.000000e+000  0.000000e+000
    outer loop
      vertex  1.100000e+001  2.600000e+001  2.000000e+001
      vertex  1.100000e+001  2.823223e+001  2.176777e+001
      vertex  1.100000e+001  2.676393e+001  2.235114e+001
    endloop
  endfacet
  facet normal  1.000000e+000  0.000000e+000  0.000000e+000
    outer loop
      vertex  1.100000e+001  3.250000e+001  2.000000e+001
      vertex  1.100000e+001  3.400000e+001  2.000000e+001
      vertex  1.100000e+001  3.176777e+001  2.176777e+001
    endloop
  endfacet
  facet normal  9.999999e-001  -0.000000e+000  0.000000e+000
    outer loop
      vertex  1.100000e+001  3.176777e+001  2.176777e+001
      vertex  1.100000e+001  3.400000e+001  2.000000e+001
      vertex  1.100000e+001  3.323607e+001  2.235114e+001
    endloop
  endfacet
  facet normal  1.000000e+000  0.000000e+000  0.000000e+000
    outer loop
      vertex  1.100000e+001  3.176777e+001  2.176777e+001
      vertex  1.100000e+001  3.323607e+001  2.235114e+001
      vertex  1.100000e+001  3.000000e+001  2.250000e+001
    endloop
  endfacet
  facet normal  9.999999e-001  -0.000000e+000  0.000000e+000
    outer loop
      vertex  1.100000e+001  3.000000e+001  2.250000e+001
      vertex  1.100000e+001  3.323607e+001  2.235114e+001
      vertex  1.100000e+001  3.123607e+001  2.380423e+001
    endloop
  endfacet
  facet normal -1.000000e+000  0.000000e+000  0.000000e+000
    outer loop
      vertex  8.000000e+000  2.600000e+001 -9.920728e+000
      vertex  8.000000e+000  2.600000e+001  2.000000e+001
      vertex  8.000000e+000  2.750000e+001  2.000000e+001
    endloop
  endfacet
  facet normal -1.000000e+000  0.000000e+000  -0.000000e+000
    outer loop
      vertex  8.000000e+000  2.600000e+001 -9.920728e+000
      vertex  8.000000e+000  2.750000e+001  2.000000e+001
      vertex  8.000000e+000  2.823223e+001  1.823223e+001
    endloop
  endfacet
  facet normal -1.000000e+000  0.000000e+000  -0.000000e+000
    outer loop
      vertex  8.000000e+000  2.600000e+001 -9.920728e+000
      vertex  8.000000e+000  2.823223e+001  1.823223e+001
      vertex  8.000000e+000  3.000000e+001  1.750000e+001
    endloop
  endfacet
  facet normal -1.000000e+000  0.000000e+000  -0.000000e+000
    outer loop
      vertex  8.000000e+000  2.600000e+001 -9.920728e+000
      vertex  8.000000e+000  3.000000e+001  1.750000e+001
      vertex  8.000000e+000  3.000000e+001 -9.920728e+000
    endloop
  endfacet
  facet normal -1.000000e+000  0.000000e+000  0.000000e+000
    outer loop
      vertex  8.000000e+000  2.823223e+001  2.176777e+001
      vertex  8.000000e+000  2.676393e+001  2.235114e+001
      vertex  8.000000e+000  3.000000e+001  2.250000e+001
    endloop
  endfacet
  facet normal -9.999999e-001  -0.000000e+000  0.000000e+000
    outer loop
      vertex  8.000000e+000  3.000000e+001  2.250000e+001
      vertex  8.000000e+000  2.676393e+001  2.235114e+001
      vertex  8.000000e+000  2.876393e+001  2.380423e+001
    endloop
  endfacet
  facet normal -9.999999e-001  0.000000e+000  0.000000e+000
    outer loop
      vertex  8.000000e+000  3.000000e+001  2.250000e+001
      vertex  8.000000e+000  2.876393e+001  2.380423e+001
      vertex  8.000000e+000  3.123607e+001  2.380423e+001
    endloop
  endfacet
  facet normal -1.000000e+000  0.000000e+000  0.000000e+000
    outer loop
      vertex  8.000000e+000  2.750000e+001  2.000000e+001
      vertex  8.000000e+000  2.600000e+001  2.000000e+001
      vertex  8.000000e+000  2.823223e+001  2.176777e+001
    endloop
  endfacet
  facet normal -9.999999e-001  -0.000000e+000  0.000000e+000
    outer loop
      vertex  8.000000e+000  2.823223e+001  2.176777e+001
      vertex  8.000000e+000  2.600000e+001  2.000000e+001
      vertex  8.000000e+000  2.676393e+001  2.235114e+001
    endloop
  endfacet
  facet normal -9.999999e-001  0.000000e+000  0.000000e+000
    outer loop
      vertex  8.000000e+000  3.400000e+001  2.000000e+001
      vertex  8.000000e+000  3.176777e+001  2.176777e+001
      vertex  8.000000e+000  3.323607e+001  2.235114e+001
    endloop
  endfacet
  facet normal -1.000000e+000  -0.000000e+000  0.000000e+000
    outer loop
      vertex  8.000000e+000  3.323607e+001  2.235114e+001
      vertex  8.000000e+000  3.176777e+001  2.176777e+001
      vertex  8.000000e+000  3.000000e+001  2.250000e+001
    endloop
  endfacet
  facet normal -9.999999e-001  0.000000e+000  0.000000e+000
    outer loop
      vertex  8.000000e+000  3.323607e+001  2.235114e+001
      vertex  8.000000e+000  3.000000e+001  2.250000e+001
      vertex  8.000000e+000  3.123607e+001  2.380423e+001
    endloop
  endfacet
  facet normal -1.000000e+000  0.000000e+000  0.000000e+000
    outer loop
      vertex  8.000000e+000  3.176777e+001  2.176777e+001
      vertex  8.000000e+000  3.400000e+001  2.000000e+001
      vertex  8.000000e+000  3.250000e+001  2.000000e+001
    endloop
  endfacet
  facet normal -1.000000e+000  0.000000e+000  0.000000e+000
    outer loop
      vertex  8.000000e+000  3.250000e+001  2.000000e+001
      vertex  8.000000e+000  3.400000e+001  2.000000e+001
      vertex  8.000000e+000  3.400000e+001 -9.920728e+000
    endloop
  endfacet
  facet normal -9.999999e-001  0.000000e+000  0.000000e+000
    outer loop
      vertex  8.000000e+000  3.250000e+001  2.000000e+001
      vertex  8.000000e+000  3.400000e+001 -9.920728e+000
      vertex  8.000000e+000  3.176777e+001  1.823223e+001
    endloop
  endfacet
  facet normal -1.000000e+000  0.000000e+000  -0.000000e+000
    outer loop
      vertex  8.000000e+000  3.176777e+001  1.823223e+001
      vertex  8.000000e+000  3.400000e+001 -9.920728e+000
      vertex  8.000000e+000  3.000000e+001 -9.920728e+000
    endloop
  endfacet
  facet normal -1.000000e+000  0.000000e+000  0.000000e+000
    outer loop
      vertex  8.000000e+000  3.176777e+001  1.823223e+001
      vertex  8.000000e+000  3.000000e+001 -9.920728e+000
      vertex  8.000000e+000  3.000000e+001  1.750000e+001
    endloop
  endfacet
  facet normal -9.831252e-001  1.544589e-001 -9.801719e-002
    outer loop
      vertex  7.894320e+000  3.000000e+001 -1.311758e+001
      vertex  8.183799e+000  3.216070e+001 -1.261619e+001
      vertex  8.571993e+000  3.261161e+001 -1.579927e+001
    endloop
  endfacet
  facet normal -7.721303e-001  5.764483e-001  2.674364e-001
    outer loop
      vertex  1.005502e+001  3.432140e+001 -9.375143e+000
      vertex  1.041868e+001  3.630497e+001 -1.260072e+001
      vertex  8.974669e+000  3.374244e+001 -1.124636e+001
    endloop
  endfacet
  facet normal -9.083235e-001  4.159325e-001  4.414220e-002
    outer loop
      vertex  8.974669e+000  3.374244e+001 -1.124636e+001
      vertex  9.311670e+000  3.482562e+001 -1.451811e+001
      vertex  8.183799e+000  3.216070e+001 -1.261619e+001
    endloop
  endfacet
  facet normal  8.115380e-001  1.988309e-002 -5.839613e-001
    outer loop
      vertex  2.316524e+001  3.000000e+001 -1.694433e+001
      vertex  2.131994e+001  3.000000e+001 -1.950876e+001
      vertex  2.143958e+001  3.120297e+001 -1.930153e+001
    endloop
  endfacet
  facet normal  8.191465e-001  5.662034e-002 -5.707829e-001
    outer loop
      vertex  2.316524e+001  3.000000e+001 -1.694433e+001
      vertex  2.143958e+001  3.120297e+001 -1.930153e+001
      vertex  2.178030e+001  3.222279e+001 -1.871140e+001
    endloop
  endfacet
  facet normal  8.332055e-001  8.473838e-002 -5.464320e-001
    outer loop
      vertex  2.316524e+001  3.000000e+001 -1.694433e+001
      vertex  2.178030e+001  3.222279e+001 -1.871140e+001
      vertex  2.229021e+001  3.290422e+001 -1.782820e+001
    endloop
  endfacet
  facet normal  8.515754e-001  9.995653e-002 -5.146144e-001
    outer loop
      vertex  2.316524e+001  3.000000e+001 -1.694433e+001
      vertex  2.229021e+001  3.290422e+001 -1.782820e+001
      vertex  2.289170e+001  3.314351e+001 -1.678640e+001
    endloop
  endfacet
  facet normal  7.102988e-001  4.752448e-001 -5.192475e-001
    outer loop
      vertex  2.289170e+001  3.314351e+001 -1.678640e+001
      vertex  2.229021e+001  3.290422e+001 -1.782820e+001
      vertex  2.158555e+001  3.591960e+001 -1.603230e+001
    endloop
  endfacet
  facet normal  7.102993e-001  4.752447e-001 -5.192471e-001
    outer loop
      vertex  2.158555e+001  3.591960e+001 -1.603230e+001
      vertex  2.229021e+001  3.290422e+001 -1.782820e+001
      vertex  2.045288e+001  3.546900e+001 -1.799413e+001
    endloop
  endfacet
  facet normal  4.584796e-001  7.711017e-001 -4.418129e-001
    outer loop
      vertex  2.158555e+001  3.591960e+001 -1.603230e+001
      vertex  2.045288e+001  3.546900e+001 -1.799413e+001
      vertex  1.945050e+001  3.789533e+001 -1.479962e+001
    endloop
  endfacet
  facet normal  4.584789e-001  7.711020e-001 -4.418133e-001
    outer loop
      vertex  1.945050e+001  3.789533e+001 -1.479962e+001
      vertex  2.045288e+001  3.546900e+001 -1.799413e+001
      vertex  1.793979e+001  3.729433e+001 -1.741624e+001
    endloop
  endfacet
  facet normal  1.395536e-001  9.444670e-001 -2.975011e-001
    outer loop
      vertex  1.945050e+001  3.789533e+001 -1.479962e+001
      vertex  1.793979e+001  3.729433e+001 -1.741624e+001
      vertex  1.681953e+001  3.876255e+001 -1.328063e+001
    endloop
  endfacet
  facet normal  1.395536e-001  9.444670e-001 -2.975011e-001
    outer loop
      vertex  1.681953e+001  3.876255e+001 -1.328063e+001
      vertex  1.793979e+001  3.729433e+001 -1.741624e+001
      vertex  1.514289e+001  3.809554e+001 -1.618466e+001
    endloop
  endfacet
  facet normal -1.981345e-001  9.740580e-001 -1.093334e-001
    outer loop
      vertex  1.681953e+001  3.876255e+001 -1.328063e+001
      vertex  1.514289e+001  3.809554e+001 -1.618466e+001
      vertex  1.410296e+001  3.838602e+001 -1.171222e+001
    endloop
  endfacet
  facet normal -1.981338e-001  9.740581e-001 -1.093332e-001
    outer loop
      vertex  1.410296e+001  3.838602e+001 -1.171222e+001
      vertex  1.514289e+001  3.809554e+001 -1.618466e+001
      vertex  1.249837e+001  3.774767e+001 -1.449146e+001
    endloop
  endfacet
  facet normal -5.069848e-001  8.565968e-001  9.596112e-002
    outer loop
      vertex  1.410296e+001  3.838602e+001 -1.171222e+001
      vertex  1.249837e+001  3.774767e+001 -1.449146e+001
      vertex  1.172448e+001  3.682445e+001 -1.033901e+001
    endloop
  endfacet
  facet normal -5.069839e-001  8.565972e-001  9.596139e-002
    outer loop
      vertex  1.172448e+001  3.682445e+001 -1.033901e+001
      vertex  1.249837e+001  3.774767e+001 -1.449146e+001
      vertex  1.041868e+001  3.630497e+001 -1.260072e+001
    endloop
  endfacet
  facet normal -7.413719e-001  6.057233e-001  2.889068e-001
    outer loop
      vertex  1.172448e+001  3.682445e+001 -1.033901e+001
      vertex  1.041868e+001  3.630497e+001 -1.260072e+001
      vertex  1.005502e+001  3.432140e+001 -9.375143e+000
    endloop
  endfacet
  facet normal  5.199434e-001  9.453245e-002 -8.489538e-001
    outer loop
      vertex  2.143958e+001  3.120297e+001 -1.930153e+001
      vertex  2.131994e+001  3.000000e+001 -1.950876e+001
      vertex  1.885105e+001  3.226534e+001 -2.076859e+001
    endloop
  endfacet
  facet normal  5.199430e-001  9.453199e-002 -8.489540e-001
    outer loop
      vertex  1.885105e+001  3.226534e+001 -2.076859e+001
      vertex  2.131994e+001  3.000000e+001 -1.950876e+001
      vertex  1.862575e+001  3.000000e+001 -2.115882e+001
    endloop
  endfacet
  facet normal  1.496187e-001  1.533818e-001 -9.767744e-001
    outer loop
      vertex  1.885105e+001  3.226534e+001 -2.076859e+001
      vertex  1.862575e+001  3.000000e+001 -2.115882e+001
      vertex  1.580333e+001  3.302141e+001 -2.111670e+001
    endloop
  endfacet
  facet normal  1.496184e-001  1.533816e-001 -9.767745e-001
    outer loop
      vertex  1.580333e+001  3.302141e+001 -2.111670e+001
      vertex  1.862575e+001  3.000000e+001 -2.115882e+001
      vertex  1.550283e+001  3.000000e+001 -2.163718e+001
    endloop
  endfacet
  facet normal -2.387464e-001  1.878660e-001 -9.527364e-001
    outer loop
      vertex  1.580333e+001  3.302141e+001 -2.111670e+001
      vertex  1.550283e+001  3.000000e+001 -2.163718e+001
      vertex  1.277176e+001  3.335328e+001 -2.029158e+001
    endloop
  endfacet
  facet normal -2.387465e-001  1.878659e-001 -9.527363e-001
    outer loop
      vertex  1.277176e+001  3.335328e+001 -2.029158e+001
      vertex  1.550283e+001  3.000000e+001 -2.163718e+001
      vertex  1.243825e+001  3.000000e+001 -2.086922e+001
    endloop
  endfacet
  facet normal -5.882871e-001  1.937520e-001 -7.850977e-001
    outer loop
      vertex  1.277176e+001  3.335328e+001 -2.029158e+001
      vertex  1.243825e+001  3.000000e+001 -2.086922e+001
      vertex  1.022913e+001  3.320919e+001 -1.842190e+001
    endloop
  endfacet
  facet normal -5.882872e-001  1.937519e-001 -7.850977e-001
    outer loop
      vertex  1.022913e+001  3.320919e+001 -1.842190e+001
      vertex  1.243825e+001  3.000000e+001 -2.086922e+001
      vertex  9.909956e+000  3.000000e+001 -1.897473e+001
    endloop
  endfacet
  facet normal -8.500893e-001  1.703875e-001 -4.983137e-001
    outer loop
      vertex  1.022913e+001  3.320919e+001 -1.842190e+001
      vertex  9.909956e+000  3.000000e+001 -1.897473e+001
      vertex  8.571993e+000  3.261161e+001 -1.579927e+001
    endloop
  endfacet
  facet normal -8.500890e-001  1.703878e-001 -4.983138e-001
    outer loop
      vertex  8.571993e+000  3.261161e+001 -1.579927e+001
      vertex  9.909956e+000  3.000000e+001 -1.897473e+001
      vertex  8.312252e+000  3.000000e+001 -1.624916e+001
    endloop
  endfacet
  facet normal -9.839908e-001  1.204859e-001 -1.313211e-001
    outer loop
      vertex  8.571993e+000  3.261161e+001 -1.579927e+001
      vertex  8.312252e+000  3.000000e+001 -1.624916e+001
      vertex  7.894320e+000  3.000000e+001 -1.311758e+001
    endloop
  endfacet
  facet normal  5.561185e-001  2.692042e-001 -7.862960e-001
    outer loop
      vertex  2.178030e+001  3.222279e+001 -1.871140e+001
      vertex  2.143958e+001  3.120297e+001 -1.930153e+001
      vertex  1.949265e+001  3.418579e+001 -1.965730e+001
    endloop
  endfacet
  facet normal  5.561191e-001  2.692046e-001 -7.862954e-001
    outer loop
      vertex  1.949265e+001  3.418579e+001 -1.965730e+001
      vertex  2.143958e+001  3.120297e+001 -1.930153e+001
      vertex  1.885105e+001  3.226534e+001 -2.076859e+001
    endloop
  endfacet
  facet normal  2.083160e-001  4.367946e-001 -8.751085e-001
    outer loop
      vertex  1.949265e+001  3.418579e+001 -1.965730e+001
      vertex  1.885105e+001  3.226534e+001 -2.076859e+001
      vertex  1.665908e+001  3.558284e+001 -1.963451e+001
    endloop
  endfacet
  facet normal  2.083153e-001  4.367943e-001 -8.751089e-001
    outer loop
      vertex  1.665908e+001  3.558284e+001 -1.963451e+001
      vertex  1.885105e+001  3.226534e+001 -2.076859e+001
      vertex  1.580333e+001  3.302141e+001 -2.111670e+001
    endloop
  endfacet
  facet normal -1.668532e-001  5.349975e-001 -8.282135e-001
    outer loop
      vertex  1.665908e+001  3.558284e+001 -1.963451e+001
      vertex  1.580333e+001  3.302141e+001 -2.111670e+001
      vertex  1.372150e+001  3.619606e+001 -1.864658e+001
    endloop
  endfacet
  facet normal -1.668532e-001  5.349976e-001 -8.282135e-001
    outer loop
      vertex  1.372150e+001  3.619606e+001 -1.864658e+001
      vertex  1.580333e+001  3.302141e+001 -2.111670e+001
      vertex  1.277176e+001  3.335328e+001 -2.029158e+001
    endloop
  endfacet
  facet normal -5.141416e-001  5.517595e-001 -6.566733e-001
    outer loop
      vertex  1.372150e+001  3.619606e+001 -1.864658e+001
      vertex  1.277176e+001  3.335328e+001 -2.029158e+001
      vertex  1.113806e+001  3.592981e+001 -1.684759e+001
    endloop
  endfacet
  facet normal -5.141413e-001  5.517598e-001 -6.566734e-001
    outer loop
      vertex  1.113806e+001  3.592981e+001 -1.684759e+001
      vertex  1.277176e+001  3.335328e+001 -2.029158e+001
      vertex  1.022913e+001  3.320919e+001 -1.842190e+001
    endloop
  endfacet
  facet normal -7.848844e-001  4.852234e-001 -3.853763e-001
    outer loop
      vertex  1.113806e+001  3.592981e+001 -1.684759e+001
      vertex  1.022913e+001  3.320919e+001 -1.842190e+001
      vertex  9.311670e+000  3.482562e+001 -1.451811e+001
    endloop
  endfacet
  facet normal -7.848846e-001  4.852231e-001 -3.853762e-001
    outer loop
      vertex  9.311670e+000  3.482562e+001 -1.451811e+001
      vertex  1.022913e+001  3.320919e+001 -1.842190e+001
      vertex  8.571993e+000  3.261161e+001 -1.579927e+001
    endloop
  endfacet
  facet normal -9.346875e-001  3.495752e-001 -6.447016e-002
    outer loop
      vertex  9.311670e+000  3.482562e+001 -1.451811e+001
      vertex  8.571993e+000  3.261161e+001 -1.579927e+001
      vertex  8.183799e+000  3.216070e+001 -1.261619e+001
    endloop
  endfacet
  facet normal  6.229625e-001  4.028925e-001 -6.705188e-001
    outer loop
      vertex  2.229021e+001  3.290422e+001 -1.782820e+001
      vertex  2.178030e+001  3.222279e+001 -1.871140e+001
      vertex  2.045288e+001  3.546900e+001 -1.799413e+001
    endloop
  endfacet
  facet normal  6.229628e-001  4.028926e-001 -6.705183e-001
    outer loop
      vertex  2.045288e+001  3.546900e+001 -1.799413e+001
      vertex  2.178030e+001  3.222279e+001 -1.871140e+001
      vertex  1.949265e+001  3.418579e+001 -1.965730e+001
    endloop
  endfacet
  facet normal  3.167728e-001  6.537089e-001 -6.872554e-001
    outer loop
      vertex  2.045288e+001  3.546900e+001 -1.799413e+001
      vertex  1.949265e+001  3.418579e+001 -1.965730e+001
      vertex  1.793979e+001  3.729433e+001 -1.741624e+001
    endloop
  endfacet
  facet normal  3.167731e-001  6.537088e-001 -6.872550e-001
    outer loop
      vertex  1.793979e+001  3.729433e+001 -1.741624e+001
      vertex  1.949265e+001  3.418579e+001 -1.965730e+001
      vertex  1.665908e+001  3.558284e+001 -1.963451e+001
    endloop
  endfacet
  facet normal -3.401147e-002  8.006809e-001 -5.981249e-001
    outer loop
      vertex  1.793979e+001  3.729433e+001 -1.741624e+001
      vertex  1.665908e+001  3.558284e+001 -1.963451e+001
      vertex  1.514289e+001  3.809554e+001 -1.618466e+001
    endloop
  endfacet
  facet normal -3.401129e-002  8.006809e-001 -5.981249e-001
    outer loop
      vertex  1.514289e+001  3.809554e+001 -1.618466e+001
      vertex  1.665908e+001  3.558284e+001 -1.963451e+001
      vertex  1.372150e+001  3.619606e+001 -1.864658e+001
    endloop
  endfacet
  facet normal -3.771372e-001  8.257670e-001 -4.193762e-001
    outer loop
      vertex  1.514289e+001  3.809554e+001 -1.618466e+001
      vertex  1.372150e+001  3.619606e+001 -1.864658e+001
      vertex  1.249837e+001  3.774767e+001 -1.449146e+001
    endloop
  endfacet
  facet normal -3.771382e-001  8.257665e-001 -4.193762e-001
    outer loop
      vertex  1.249837e+001  3.774767e+001 -1.449146e+001
      vertex  1.372150e+001  3.619606e+001 -1.864658e+001
      vertex  1.113806e+001  3.592981e+001 -1.684759e+001
    endloop
  endfacet
  facet normal -6.644021e-001  7.261878e-001 -1.766948e-001
    outer loop
      vertex  1.249837e+001  3.774767e+001 -1.449146e+001
      vertex  1.113806e+001  3.592981e+001 -1.684759e+001
      vertex  1.041868e+001  3.630497e+001 -1.260072e+001
    endloop
  endfacet
  facet normal -6.644019e-001  7.261879e-001 -1.766948e-001
    outer loop
      vertex  1.041868e+001  3.630497e+001 -1.260072e+001
      vertex  1.113806e+001  3.592981e+001 -1.684759e+001
      vertex  9.311670e+000  3.482562e+001 -1.451811e+001
    endloop
  endfacet
  facet normal -8.478867e-001  5.231768e-001  8.587271e-002
    outer loop
      vertex  1.041868e+001  3.630497e+001 -1.260072e+001
      vertex  9.311670e+000  3.482562e+001 -1.451811e+001
      vertex  8.974669e+000  3.374244e+001 -1.124636e+001
    endloop
  endfacet
  facet normal  0.000000e+000  3.826834e-001 -9.238795e-001
    outer loop
      vertex  8.000000e+000  3.000000e+001  2.250000e+001
      vertex  1.100000e+001  2.823223e+001  2.176777e+001
      vertex  8.000000e+000  2.823223e+001  2.176777e+001
    endloop
  endfacet
  facet normal  0.000000e+000  9.238795e-001 -3.826834e-001
    outer loop
      vertex  8.000000e+000  2.823223e+001  2.176777e+001
      vertex  1.100000e+001  2.823223e+001  2.176777e+001
      vertex  1.100000e+001  2.750000e+001  2.000000e+001
    endloop
  endfacet
  facet normal  0.000000e+000  9.238795e-001 -3.826834e-001
    outer loop
      vertex  8.000000e+000  2.823223e+001  2.176777e+001
      vertex  1.100000e+001  2.750000e+001  2.000000e+001
      vertex  8.000000e+000  2.750000e+001  2.000000e+001
    endloop
  endfacet
  facet normal  0.000000e+000  3.826834e-001 -9.238795e-001
    outer loop
      vertex  1.100000e+001  2.823223e+001  2.176777e+001
      vertex  8.000000e+000  3.000000e+001  2.250000e+001
      vertex  1.100000e+001  3.000000e+001  2.250000e+001
    endloop
  endfacet
  facet normal  -0.000000e+000 -3.826834e-001 -9.238795e-001
    outer loop
      vertex  1.100000e+001  3.000000e+001  2.250000e+001
      vertex  8.000000e+000  3.000000e+001  2.250000e+001
      vertex  8.000000e+000  3.176777e+001  2.176777e+001
    endloop
  endfacet
  facet normal  0.000000e+000 -3.826834e-001 -9.238795e-001
    outer loop
      vertex  1.100000e+001  3.000000e+001  2.250000e+001
      vertex  8.000000e+000  3.176777e+001  2.176777e+001
      vertex  1.100000e+001  3.176777e+001  2.176777e+001
    endloop
  endfacet
  facet normal  -0.000000e+000 -9.238795e-001 -3.826834e-001
    outer loop
      vertex  1.100000e+001  3.176777e+001  2.176777e+001
      vertex  8.000000e+000  3.176777e+001  2.176777e+001
      vertex  8.000000e+000  3.250000e+001  2.000000e+001
    endloop
  endfacet
  facet normal  0.000000e+000 -9.238795e-001 -3.826834e-001
    outer loop
      vertex  1.100000e+001  3.176777e+001  2.176777e+001
      vertex  8.000000e+000  3.250000e+001  2.000000e+001
      vertex  1.100000e+001  3.250000e+001  2.000000e+001
    endloop
  endfacet
  facet normal  0.000000e+000 -3.826834e-001  9.238795e-001
    outer loop
      vertex  8.000000e+000  3.000000e+001  1.750000e+001
      vertex  1.100000e+001  3.176777e+001  1.823223e+001
      vertex  8.000000e+000  3.176777e+001  1.823223e+001
    endloop
  endfacet
  facet normal  0.000000e+000 -9.238795e-001  3.826834e-001
    outer loop
      vertex  8.000000e+000  3.176777e+001  1.823223e+001
      vertex  1.100000e+001  3.176777e+001  1.823223e+001
      vertex  1.100000e+001  3.250000e+001  2.000000e+001
    endloop
  endfacet
  facet normal  0.000000e+000 -9.238795e-001  3.826834e-001
    outer loop
      vertex  8.000000e+000  3.176777e+001  1.823223e+001
      vertex  1.100000e+001  3.250000e+001  2.000000e+001
      vertex  8.000000e+000  3.250000e+001  2.000000e+001
    endloop
  endfacet
  facet normal  0.000000e+000 -3.826834e-001  9.238795e-001
    outer loop
      vertex  1.100000e+001  3.176777e+001  1.823223e+001
      vertex  8.000000e+000  3.000000e+001  1.750000e+001
      vertex  1.100000e+001  3.000000e+001  1.750000e+001
    endloop
  endfacet
  facet normal  0.000000e+000  3.826834e-001  9.238795e-001
    outer loop
      vertex  1.100000e+001  3.000000e+001  1.750000e+001
      vertex  8.000000e+000  3.000000e+001  1.750000e+001
      vertex  8.000000e+000  2.823223e+001  1.823223e+001
    endloop
  endfacet
  facet normal  -0.000000e+000  3.826834e-001  9.238795e-001
    outer loop
      vertex  1.100000e+001  3.000000e+001  1.750000e+001
      vertex  8.000000e+000  2.823223e+001  1.823223e+001
      vertex  1.100000e+001  2.823223e+001  1.823223e+001
    endloop
  endfacet
  facet normal  0.000000e+000  9.238795e-001  3.826834e-001
    outer loop
      vertex  1.100000e+001  2.823223e+001  1.823223e+001
      vertex  8.000000e+000  2.823223e+001  1.823223e+001
      vertex  8.000000e+000  2.750000e+001  2.000000e+001
    endloop
  endfacet
  facet normal  -0.000000e+000  9.238795e-001  3.826834e-001
    outer loop
      vertex  1.100000e+001  2.823223e+001  1.823223e+001
      vertex  8.000000e+000  2.750000e+001  2.000000e+001
      vertex  1.100000e+001  2.750000e+001  2.000000e+001
    endloop
  endfacet
  facet normal  0.000000e+000 -9.510566e-001  3.090167e-001
    outer loop
      vertex  8.000000e+000  2.600000e+001  2.000000e+001
      vertex  1.100000e+001  2.600000e+001  2.000000e+001
      vertex  8.000000e+000  2.676393e+001  2.235114e+001
    endloop
  endfacet
  facet normal  0.000000e+000 -9.510566e-001  3.090167e-001
    outer loop
      vertex  8.000000e+000  2.676393e+001  2.235114e+001
      vertex  1.100000e+001  2.600000e+001  2.000000e+001
      vertex  1.100000e+001  2.676393e+001  2.235114e+001
    endloop
  endfacet
  facet normal  0.000000e+000 -5.877852e-001  8.090170e-001
    outer loop
      vertex  8.000000e+000  2.676393e+001  2.235114e+001
      vertex  1.100000e+001  2.676393e+001  2.235114e+001
      vertex  8.000000e+000  2.876393e+001  2.380423e+001
    endloop
  endfacet
  facet normal  0.000000e+000 -5.877852e-001  8.090170e-001
    outer loop
      vertex  8.000000e+000  2.876393e+001  2.380423e+001
      vertex  1.100000e+001  2.676393e+001  2.235114e+001
      vertex  1.100000e+001  2.876393e+001  2.380423e+001
    endloop
  endfacet
  facet normal  0.000000e+000  0.000000e+000  9.999999e-001
    outer loop
      vertex  8.000000e+000  2.876393e+001  2.380423e+001
      vertex  1.100000e+001  2.876393e+001  2.380423e+001
      vertex  8.000000e+000  3.123607e+001  2.380423e+001
    endloop
  endfacet
  facet normal  -0.000000e+000  0.000000e+000  9.999999e-001
    outer loop
      vertex  8.000000e+000  3.123607e+001  2.380423e+001
      vertex  1.100000e+001  2.876393e+001  2.380423e+001
      vertex  1.100000e+001  3.123607e+001  2.380423e+001
    endloop
  endfacet
  facet normal  0.000000e+000  5.877852e-001  8.090170e-001
    outer loop
      vertex  8.000000e+000  3.123607e+001  2.380423e+001
      vertex  1.100000e+001  3.123607e+001  2.380423e+001
      vertex  8.000000e+000  3.323607e+001  2.235114e+001
    endloop
  endfacet
  facet normal  -0.000000e+000  5.877852e-001  8.090170e-001
    outer loop
      vertex  8.000000e+000  3.323607e+001  2.235114e+001
      vertex  1.100000e+001  3.123607e+001  2.380423e+001
      vertex  1.100000e+001  3.323607e+001  2.235114e+001
    endloop
  endfacet
  facet normal  0.000000e+000  9.510566e-001  3.090167e-001
    outer loop
      vertex  8.000000e+000  3.323607e+001  2.235114e+001
      vertex  1.100000e+001  3.323607e+001  2.235114e+001
      vertex  8.000000e+000  3.400000e+001  2.000000e+001
    endloop
  endfacet
  facet normal  -0.000000e+000  9.510566e-001  3.090167e-001
    outer loop
      vertex  8.000000e+000  3.400000e+001  2.000000e+001
      vertex  1.100000e+001  3.323607e+001  2.235114e+001
      vertex  1.100000e+001  3.400000e+001  2.000000e+001
    endloop
  endfacet
endsolid CATIA STL
